/* XPM */
static char *c0f4590ebc9b43a7b1a6928a00d336b9rMvj1VSmgDTptIMr[] = {
/* columns rows colors chars-per-pixel */
"64 64 250 2 ",
"   c #120B02",
".  c #160B09",
"X  c #191507",
"o  c #150A12",
"O  c #18181A",
"+  c #0D0D0F",
"@  c #240E01",
"#  c #280F00",
"$  c #281604",
"%  c #341D00",
"&  c #391C04",
"*  c #291A16",
"=  c #351F12",
"-  c #1D211B",
";  c #2C2203",
":  c #262206",
">  c #342300",
",  c #392606",
"<  c #2A231B",
"1  c #392818",
"2  c #3A3217",
"3  c #1B1B23",
"4  c #1C1725",
"5  c #221A23",
"6  c #1A2221",
"7  c #28262A",
"8  c #2C2C35",
"9  c #292838",
"0  c #352C39",
"q  c #393637",
"w  c #332D2A",
"e  c #4B2A02",
"r  c #472907",
"t  c #522C03",
"y  c #4C3705",
"u  c #5C3D02",
"i  c #553905",
"p  c #483819",
"a  c #472F16",
"s  c #623B04",
"d  c #493626",
"f  c #473839",
"g  c #523E33",
"h  c #5B4304",
"j  c #634203",
"k  c #694706",
"l  c #774803",
"z  c #6E5400",
"x  c #6A5805",
"c  c #785803",
"v  c #6E5116",
"b  c #685B2E",
"n  c #675828",
"m  c #383547",
"M  c #3B3E54",
"N  c #322A41",
"B  c #423C4D",
"V  c #3E425E",
"C  c #494448",
"Z  c #4A455C",
"A  c #474657",
"S  c #544958",
"D  c #544F51",
"F  c #625558",
"G  c #6E674F",
"H  c #494662",
"J  c #595667",
"K  c #595770",
"L  c #635D77",
"P  c #685D6B",
"I  c #5F6274",
"U  c #696469",
"Y  c #636274",
"T  c #6B6679",
"R  c #726771",
"E  c #814A01",
"W  c #855303",
"Q  c #8B5B02",
"!  c #885905",
"~  c #935C03",
"^  c #945D0B",
"/  c #8E6402",
"(  c #8B6805",
")  c #936402",
"_  c #9B6403",
"`  c #946B02",
"'  c #9B6B03",
"]  c #98670B",
"[  c #9D7303",
"{  c #967605",
"}  c #8F6912",
"|  c #A36C02",
" . c #A56C07",
".. c #A37303",
"X. c #AB7503",
"o. c #A57A02",
"O. c #AC7C03",
"+. c #AD7B0B",
"@. c #A5750B",
"#. c #B37D03",
"$. c #BA7E02",
"%. c #B47C0A",
"&. c #BD7D0B",
"*. c #B17508",
"=. c #B37711",
"-. c #8C7C24",
";. c #AD8302",
":. c #AF8902",
">. c #AB8408",
",. c #B48402",
"<. c #BB8403",
"1. c #B38A02",
"2. c #BB8B03",
"3. c #B5820C",
"4. c #BB840B",
"5. c #B48A0A",
"6. c #BC8B0B",
"7. c #BC9202",
"8. c #B79308",
"9. c #BA8713",
"0. c #BB9319",
"q. c #AA8E14",
"w. c #BB9A30",
"e. c #95821E",
"r. c #C28403",
"t. c #C28D04",
"y. c #C78A08",
"u. c #C39402",
"i. c #C89705",
"p. c #D59802",
"a. c #C58A12",
"s. c #C79818",
"d. c #D2970C",
"f. c #CCA301",
"g. c #CAA308",
"h. c #D3A303",
"j. c #DAA503",
"k. c #DAAB03",
"l. c #D7A707",
"z. c #DBB206",
"x. c #D2AC15",
"c. c #E7AC05",
"v. c #E4B302",
"b. c #ECB603",
"n. c #ECBB02",
"m. c #E8B909",
"M. c #F2BA03",
"N. c #E6B716",
"B. c #C59628",
"V. c #C79B37",
"C. c #D3AB2F",
"Z. c #E1BC37",
"A. c #ECC10C",
"S. c #E7C426",
"D. c #918A7A",
"F. c #A9995D",
"G. c #C89B42",
"H. c #C9A746",
"J. c #D1B052",
"K. c #D6BA77",
"L. c #D1B369",
"P. c #E1B352",
"I. c #EDCA4D",
"U. c #DCC46F",
"Y. c #EDCD73",
"T. c #6C6984",
"R. c #736A86",
"E. c #78768A",
"W. c #7B7B96",
"Q. c #6E6D8D",
"!. c #7E7DA7",
"~. c #847C99",
"^. c #857D88",
"/. c #887EA1",
"(. c #7D8197",
"). c #85829D",
"_. c #878398",
"`. c #8F8A8D",
"'. c #B4A98C",
"]. c #8885A3",
"[. c #948BA8",
"{. c #9995AB",
"}. c #9A97B7",
"|. c #908DB2",
" X c #A49ABA",
".X c #A092AD",
"XX c #A5A3BC",
"oX c #B2ACA8",
"OX c #9BA1BB",
"+X c #D2B88D",
"@X c #D6BE9E",
"#X c #D8C687",
"$X c #D8C495",
"%X c #EBD392",
"&X c #D7CCB2",
"*X c #E7D8B6",
"=X c #EFD7AC",
"-X c #F1E2A7",
";X c #9E97C3",
":X c #A59DC2",
">X c #AAA6C7",
",X c #B2A9CA",
"<X c #B8B1CD",
"1X c #B5ADD2",
"2X c #B7ABD8",
"3X c #ADB3D2",
"4X c #B5B1D4",
"5X c #B9B3D4",
"6X c #BCB7D9",
"7X c #ABB0CE",
"8X c #BBB9E3",
"9X c #BBB7EB",
"0X c #C5BBCD",
"qX c #C4BCDC",
"wX c #CBBDDB",
"eX c #C4BAD6",
"rX c #C3AED9",
"tX c #C6BEE5",
"yX c #CABDE5",
"uX c #C6BEEA",
"iX c #CABDEA",
"pX c #C8B6E7",
"aX c #D2BCE4",
"sX c #C4BDF2",
"dX c #C9BDF3",
"fX c #BDC2DD",
"gX c #BDC5EB",
"hX c #BDC1E5",
"jX c #BCC4F6",
"kX c #C6C2DC",
"lX c #C9C2DD",
"zX c #C6C1D7",
"xX c #CFC7D1",
"cX c #F0D9CC",
"vX c #C5C2E4",
"bX c #CAC2E5",
"nX c #C5C3EA",
"mX c #CBC3EB",
"MX c #CDC9EC",
"NX c #C8C9E8",
"BX c #D1C4ED",
"VX c #D4C9E9",
"CX c #C4C2F2",
"ZX c #CBC3F2",
"AX c #CBC8F3",
"SX c #D2C5F3",
"DX c #D3CAF3",
"FX c #D3C7F8",
"GX c #F7E9E8",
"HX c #ECE5C8",
/* pixels */
"lXbXNXnXdXdXdXpXdXpXyXwXwXlXvXvXmXnXZXCXdXuXvXtXbXVXVXVXVXSXBXVXDXDXDXDXBXSXSXaXyXbXnXgXjXjXsXdXiXyXwXwXwXvXmXCXZXnXtXtXyXbXuXuX",
"bXlXmXuXdXdXdXpXdXiXyXwXqXlXvXlXMXnXZXZXdXuXtXvXqXqXxXlXyXtXtX8XeXwXyXrX6XqXqXqXwXyXnXgXjXjXCXZXiXyXwXwXwXvXmXCXZXmXmXtXbXtXtXbX",
"lXlXyXiXdXdXdXdXpXiXyXwXwXlXlXvXnXnXCXAXCXsXuX8X5X,X X X}. X}.OX X X X}.}.:X:XrXyXyXnXnXgXgXnXnXaXaXwXwXwXvXuXCXuXuXuXtXbXtXtXuX",
"wXwXwXwXiXuXmXnXmXmXvXvXlXlXlXlXnXNXNXAXAXAXnXtX X].T R I I I I Y Y L L T.Q./.:XyXDXDXnXAXNXnXmXyXwXaXwXwXyXtXnXnXuXnXiXyXtXtXbX",
"0X0X0XlXaXbXmXnXNXgXvXvXkXkXvXkXvXNXgXNXgXgXgX3X].L m 9 9 8 8 8 8 8 7 7 9 N P [.rXBXFXmXtXvXbXpXyXyXwXlXaXwXtXuXuXuXnXtXyXuXtXtX",
"0X0X0XwXyXmXnXnXNXNXvXkXtXvXvXvXfXfX3X3XfXfX7XOXE.H 9 3 O O X - - X X X . = S ~. X5XrXrX,X5X6XuXyXaXBXaXbXyXtXtXtXtXtXyXyXvXtXmX",
"xX0XlXvXvXnXnXvXkXNXyXtXtXyXbXMXfX7XOX(.(.(.(.(.T.I S g d y h , y y y y y h b P ~.~.).~._.[.7XhXZXmXSXiXaXyXtXtXtXtXnXtXyXyXtXtX",
"0XzXlXvXnX9XnXNXkXkXqXyXyXyXBXVX3X{.I A M 8 A A I (.`.`.F.-.{ { { { { { { } } n D A M M D R |.3XDXAXSXBXiXiXtXtXtXtXtXbXuXtXvXyX",
"lXlXnXjXjXjXuXpXzX0XwXpXpXpXiXaXXX^.S 9 o o 6 8 P .X0X=XU.Z.k.j.h.p.c.k.z.l.e.x < - + O 7 A W.7XsXFXFXdXdXuXtXvX6XvXtXnXtXuXtXtX",
"NXNXnXCXjX9XsXiXwXwXyXiXpXpX2X X[.R.S f * O : d G '.*X=XY.S.m.c.c.N.N.M.M.v.:.x , X     : q Y ].>X9X9XdXAXmX8XtXtXtXyXvXtXbXtXbX",
"NXnXuXsX9X9XuXiXyXyXBXSXpX2X[.^.R P R G G n x x e.L.#XY.I.N.c.c.c.c.c.b.c.j.:.( h y ; > , d D L W.;X2XuXSXBXwXvXvXvXyXtXvXiXtXyX",
"jXgXsXdXsXdXdXiXdXSXDXDXpX XT B B R `.oX'.F.q.8.8.V.H.C.s.p.i.y.y.p.p.p.p.i.1.[ c z x k i i w 0 V Q.;XtXZXmXVXbXbXyXyXyXtXtXtXvX",
"sXCXuXpXpXdXpXiXZXZXNXNX,X].J 0 w U oX&X-XU.S.z.g.s.s.6.6.9.a.a.y.p.y.y.y.r.,.+.:.{ ` } c s r * 9 J /.:X8XvXvXvXbXbXvXtXbXtXbXtX",
"uX9XnXpXpXpXiXiXmX8X4XXX[.R.J D D D.+X&X%XI.S.z.f.u.<.6.w.G.H.C.s.p.i.y.r.r.<.<.1.:.O.o.] v t & < f R /.}.7XqXvXmXbXmXuXuXtXyXtX",
"uXnXnXuXpXaXaXbXtX1X[.T I I T `.`.'.L.L.Z.C.x.g.i.2.4.0.H.#X#XI.Z.N.p.p.y.r.<.<.,.,.,.O...) k u a a B F T.{.3XvXMXbXvXtXvXtXnXyX",
"bXvXnXiXpXaXBXMX6XXXR.B q A _.oX&X@XL.B.s.8.s.6.2.,.3.B.L.*XHX-XI.N.k.p.p.r.<.$.,.,.2.,.#.X.Q l s r = w C (.>XhXMXMXnXvXuXtXvXyX",
"yXbXNXlXyXaXBXVXhX}.U 8 O q D.$X*XU.V.a.<.,.,.6.q.0.B.H.+X*X-X-XI.S.z.p.t.<.#.%.<.4.6.2.1.O.' Q s r # o N T :XnXAXnXvXvXtXtXmXuX",
"lXkXvXkXbXBXmXDXnX}.Y 7 + w D.U.%XU.C.5.$.,.1.0.0.H.L.K.$X$X#XU.Z.x.f.u.#.X.X.+.<.6.6.7.1.;.| ^ E r # o 0 T :XmXDXMXmXtXyXvXmXuX",
"qXzXkXvXbXVXDXDXsX:XL 9 X 2 -.J.I.S.x.8.$.#.1.s.H.K.%X&X#XU.H.w.s.g.7.O.' )  .=.9.a.a.8.1.:.' / l e # o 9 R.>XdXDXnXmXuXtXtXtXuX",
"zXfXkXvXbXmXmXmX2X;XT.m < h { g.A.z.g.:.<.,.1.B.L.%XHX*XU.V.0.8.2.1.,...) Q ^ =.=.9.6.1.1.;.[ ) l t & o f T  XrXnXmXyXyXmXmXtXvX",
"zXzXzXNXbXvX5X>X}./.T.J D b e.g.k.j.i.<.,.,.,.s.L.*XGXcXK.V.<.,.,.<.O.| ! ! } @.9.9.9.2.1.;.o.' W s e , d J ~..X,X2XtXyXmXuXtXtX",
"wXwXlXbXvX6X}.).T L T.W.`.F.w.s.p.i.6.4.<.,.1.0.L.cXGXcX#XG.9.$.<.#.*.' ^ ^ ^ @.=.3.6.1.,.,.,.X. .! j i a g F L /. XqXnXmXmXtXyX",
"aXwXlXlXfXfX).K q C R {.@X$XJ.B.t.2.2.,.,.,.5.0.L.=XGXcX+XG.9.&.$.$.*.| ^ ^ ] ' X.,.,.,.,.<.4.$.=. .~ z s a 7 f L [.5XmXmXmXvXtX",
"aXaXlXfXfXXX(.A 7 w G oX*X=XP.B.<.2.1.,.1.;.>.0.J.=XcX=XK.V.4.<.<.&.=. .^ ^ ^ | O.O.,.,.#.4.y.a.&.*.' ! j & X O Z ~.5XmXmXnXuXyX",
"BXBXaXSXvX7XE.M O < G L.%XY.P.B.<.#.<.<.,.1.:.0.H.U.Y.%XP.B.&.&.<.,.%. .^ ! ^  .O.,.,.,.<.r.r.r.$.X.' / j $   O A ~.1XmXSXmXtXtX",
"dXdXdXAXvX7XW.B O : n w.I.I.N.s.4.3.4.2.,.;.:.8.x.P.I.S.C.d.r.r.5.1.>.' } ! ) ..;.1.2.<.2.<.r.$.#...' c h %   3 Z ).2XmXmXmXbXtX",
"ZXdXZXFXNX3X(.B - : h 8.N.N.x.u.4.3.4.3.3.5.,.8.g.N.S.M.j.y.r.<.5.5.>.{ / ! ) [ :.1.6.t.t.<.<.#.X.[ ` / h > X O Z ).5XmXmXmXtXtX",
"dXnXZXAXnX1X).V 3 : x :.v.b.l.a.6.3.9.9.3.4.,.y.h.v.M.M.c.y.r.4.5.1.>.' / ! ) o.1.1.u.t.<.<.3.O.o...` c j > X O Z ).5XmXSXyXnXyX",
"vXvXvXMXNX4X/.H 3 : z 1.v.n.l.t.4.4.4.&.&.4.&.y.p.v.A.v.j.i.<.,.2.,.o.' ! Q ) ..1.2.2.2.<.4.3.>.+.@._ W s & X O Z ].1XmXmXmXtXbX",
"6XkXlXbXbX<X~.H O : z 7.b.n.k.7.4.3.4.4.&.&.r.y.p.v.A.A.j.i.2.2.<.3.O.' Q W ) X.,.2.2.1.,.,.5.5.3.@.' W s & . * Z ~.5XmXSXbXtXuX",
"zXkXkXMXbX5X).H 3 $ z 1.n.n.j.u.5.,.3.<.$.r.r.y.j.c.A.n.k.u.2.1.4.3.O.' Q W ) X.<.2.2.1.,.1.3.9.3.X.] W s & X O Z ).1XmXmXmXtXbX",
"kXkXtXmXMX5X).Z 5 , c 7.n.n.j.8.:.;.,.<.<.r.&.a.p.c.M.v.f.u.2.4.<.<.O.' Q Q ) ..<.<.2.1.;.1.5.9.3..._ W s & . 3 Z ).5XmXSXmXtXtX",
"nXnXmXDXFXrX/.B 5 > x 8.n.M.j.2.#.#.,.1.1.,.6.i.h.c.M.v.h.7.1.1.<.6.,.| ~ Q ~ X.3.<.2.2.2.2.2.<.#.X._ E s % . 4 Z ].4XmXSXbXyXuX",
"CXnXmXSXSX2X[.V * ; x 7.n.n.j.2.;.;.,.1.5.5.2.u.p.c.M.v.h.7.1.3.6.2.3.| ~ W ) | 3.<.2.2.1.2.<.<.#...~ W s % . 4 A ].4XmXmXmXvXyX",
"CXZXZXFXdX2X/.Z 6 ; z 8.n.M.j.2.;.,.:.1.,.:.8.7.h.c.b.v.f.7.:.,.6.y.%.| ~ Q _ | #.1.2.1.2.2.<.<.#.X._ E u %   6 A ].3XmXBXbXuXbX",
"CXCXZXFXZX2XW.Z - ; c 7.b.M.j.u.:.;.:.1.1.:.1.8.h.z.n.n.h.7.1.1.<.<.#.| ~ ~ ) ..;.1.1.1.,.2.<.<.*.| _ W u ; X 6 H ].4XmXmXyXtXuX",
"iXbXiXBXuX1XW.A - ; z 7.b.M.j.u.1.1.8.1.1.:.:.8.f.v.A.M.k.7.1.,.<.$.X.| ~ ~ _ ..;.;.1.1.,.,.<.<.$.| _ E s > X 6 Z ).4XmXBXiXtXbX",
"vXyXyXmXpX7X(.Z - ; z 2.b.M.j.u.1.1.1.7.1.,.:.8.f.v.M.M.k.u.1.1.$.$.X.| ~ ~ ) ..>.:.:.;.,.<.<.<.$.X.| W s > X 6 A ).5XmXSXbXtXtX",
"bXbXmXBXdX2X(.M - : z 7.n.M.z.g.1.1.1.7.1.,.:.1.f.k.M.n.k.u.2.<.<.#.X.| ~ Q ) o.>.>.1.:.,.<.<.r.$. ._ W j >   6 A _.4XmXBXyXtXtX",
"bXyXaXSXsX3X(.V + : z u.M.A.l.8.:.1.1.1.<.1.1.7.f.v.n.b.l.u.<.4.<.<.*.| ~ Q ) [ >.5.5.5.5.6.<.r.$.X.| W s >   O A _.1XmXSXbXvXyX",
"VXaXBXSXdX2X!.V 6 ; z 7.v.m.g.8.5.>.3.<.<.<.<.2.f.z.v.m.l.a.4.2.t.r.#.' Q W ) [ q.5.6.5.6.4.6.<.$...] W u > X 3 A ).5XiXmXmXyXvX",
"bXwXiXSXdX9X|.T.q 2 x >.i.g.7.1.>.,.<.r.<.<.<.7.p.v.n.v.l.y.4.r.<.2.#.| ~ W / @.3.q.8.6.3.&.4.#.X.] ! v i a < m I [.5XmXmXmXuXyX",
"bXaXVXZXsX9X;XW.U G b } { { o.;.,.<.4.&.&.&.<.u.d.c.m.n.j.y.y.6.2.4.,.| ) Q ) [ >.5.5.6.&.%.*.*._ W s s d g D Y ).}.6XnXmXmXtXbX",
"bXbXmXmXuX9X2X:X[.^.G g y k / ..<.<.&.&.&.&.<.t.l.m.A.m.k.i.<.4.4.4.,...) Q ) ..>.,.2.3.&.*. ._ W s e = g F E.[.>X4XtXmXmXiXtXvX",
"mXtXvXnXuXuXuXtX0X.XU 0 $ , z ' $.<.&.&.&.&.&.y.h.N.m.m.j.t.,.3.4.3.+.[ ) ~ _ ..O.,.<.<.#.*.] ^ l t & @ q T {.5XtXuXtXbXiXnXtXyX",
"mXmXvXuXuXuXVXDXyX XT 9 + $ s ) %.&.&.&.&.&.4.y.p.z.z.z.u.,.X.X.@.+.@.@.' ' | O.,.<.r.r.$.*.] ^ l t # o q T >XnXDXnXtXtXyXuXvXuX",
"yXtXvXuXuXZXmXSXpX:XT.N + X i ! | +.<.4.r.<.<.y.2.i.f.7.1.o.' _ ] ' ] ] @.@.X.#.<.<.r.r.$.%.] ^ v e @ . 8 T >XMXDXMXyXtXyXtXiXuX",
"uXtXtXuXZXZXiXBXpX:XT.N o $ e c ' ..3.<.r.<.<.<.2.7.7.,...` Q ~ Q / / ] @.=.%.<.<.<.r.r.r.#.@.} v e @ o q T >XMXDXmXvXtXtXtXmXuX",
"tXtXtXvXvXmXmXSXtX:XW.H 9 1 a s c ) X.,.,.,.O.#.,.;.,.O...` ) Q / Q ) ' +.4.4.3.$.#.<.<.$.@.} c v p 1 7 A (.>XlXMXMXmXtXtXyXnXyX",
"qXqXlXvXvXvXmXSXdX2X|.Q.H B d p u z ( ....o...o.o.;.;.;.X.[ ` ` / ` ' @.%.9.3.#.O.X.....| ) l s a d C J Q.|.3XNXMXMXtXtXtXvXtXtX",
"qXqXkXkXvXNXNXmXdXpX2X;X/.T g 1 , y z / ' { ` { [ >.:.:.;.>.o.o.@.[ +.q.9.9.3.@.` ) ` ` / z e > 2 C U (.OX3X6XmXmXmXtXtXyXvXnXyX",
"eXzXzXzXzXlXbXbXZXuXsX9X>X).S 8 : , h c c c c c ( { >.1.1.>.;.;.>.+.+.3.3.3.@.) W c c c z h r $ w J (.7XhX8XuXiXmXtXtXtXuXuXtXyX",
"kXkXkXkXkXlXvXvXuXmXZXZX9X}.Q.A q a y h h u h k c ` X.#.#.O.O.O.X.X.X.%.&.*.] W k h i h h y 2 f A R.OXhXgXNXiXiXyXyXyXtXvXvXuXiX",
"yXvXvXlXlXvXyXyXuXmXSXAX8X3X|.E.P g d , % $ % , u c _ *.*. .| X.| '  . . . .c s , > $ $ > 2 C L ~.|.3XgXAXMXaXwXyXyXtXbXtXiXnXiX",
"nXnXtXyXyXyXyXpXiXpXnXNXgXhX6XXX_.R f *     . $ r s ! _ ~ ] ~ ~ ~ ^ ^ ~ ~ W k r $       * q Y ].:X4XgXgXgXbXlXwXyXwXyXtXyXtXtXiX",
"sXuXuXiXiXyXiXaXuXpXnXvXgXNXMXkX>X~.Z 5 4 O * < a s s E E l l E E s E E E s i r < O O O 7 A W.>XiXDXCXjXnXbXaXaXaXyXyXtXnXnXyXiX",
"uXnXuXnXmXiXpXyXiXyXuX9XnXmXMXMX5X}.R.J Z Z A C g a a r t t t y t t e e e r d g B C D C J T.}.5XAXZXCXnXmXyXbXaXyXyXtXyXnXvXuXvX",
"mXtXuXiXmXmXiXyXiXpXtXtXvXnXmXnXtX,X}.]._._._.E.F f = @ # # $ $ # # @ @ # * d F E.`._.~.).}.>XpXmXnXmXnXtXiXiXyXyXpXyXiXtXyXyXuX",
"uXtXtXbXiXmXmXiXyXtXtXtX8XtXmXmXtXqXeX5X5X0X,X XR.B 4 + + . o o o . . + o 4 B E. X<X6X5X5X6XpX8XuXuXuX8XtXtXiXiXiXyXyXyXvXtXvXuX",
"tXtXtXtXbXiXyXnXnXtXtX8XtXtXbXbXmXMXmXbXVXMXlX<X[.L m 9 9 9 8 8 0 8 9 N N m L [.5XbXVXVXmXmXuXtXtXtXuXtXtXuXuXiXtXyXuXvXiXiXvXtX",
"qXtXtXtXtXiXnXuXnXuX8XtXtXtXtXiXmXmXmXmXVXVXMXqXXX_.R.Y U I U U I T Y Y L T.].XXqXMXDXMXmXmXmXmXuXuXmXuXnXuXtXuXtXtXvXtXvXuXvXuX",
"tXqXqXtXtXuXtXiXtXpXtXtXtXtXmXnXmXtXtXqXqXvXvXqX5X>X X}.{.{.{.{.{.{.{.{.|.}.>X5XvXbXbXmXmXtXtXuXuXmXmXmXmXiXtXtXtXtXtXiXtXyXvXyX",
"6XtXtXtXtXtXtXuXtXuXuXtXtXtXmXmXmXyXtXqXqXtXlXvXlXqX6X0X6X6XzXzXzXzXzX<X6XeXwXqXbXmXmXbXiXvXvXnXmXmXZXDXmXmXtXtXtXtXtXvXbXtXuXyX",
"tX8XtXqXtXtXuXtXuXyXyXtXtXtXmXmXmXtX6XeX6XqXbXlXNXNXlXVXVXxXlXNXlXlXlXVXbXmXmXmXbXmXmXiXiXuXtXtXnXmXmXDXmXtXtXtXtXtXtXtXuXuXvXtX"
};
