/* XPM */
static char *_de5c37f16894594b279262ae275f169X769q4GUlqugPPH2[] = {
/* columns rows colors chars-per-pixel */
"64 64 241 2 ",
"   c #17151B",
".  c #130F19",
"X  c #1D1C27",
"o  c #1F1D32",
"O  c #231E2C",
"+  c #241A27",
"@  c #271E35",
"#  c #1F222D",
"$  c #24222C",
"%  c #28252A",
"&  c #242332",
"*  c #292533",
"=  c #2C2B33",
"-  c #29253A",
";  c #352D3C",
":  c #34363B",
">  c #2A393E",
",  c #2B413F",
"<  c #45403D",
"1  c #393A41",
"2  c #4A3F45",
"3  c #3E4545",
"4  c #434544",
"5  c #45444C",
"6  c #4A4B4C",
"7  c #494847",
"8  c #4C524B",
"9  c #4C4B52",
"0  c #4A4856",
"q  c #524C59",
"w  c #545458",
"e  c #504B4F",
"r  c #61535E",
"t  c #5E625E",
"y  c #63625E",
"u  c #5B5A64",
"i  c #5D5A6A",
"p  c #5D5E74",
"a  c #514C63",
"s  c #665D6C",
"d  c #645C73",
"f  c #5B6369",
"g  c #64636C",
"h  c #69646D",
"j  c #676667",
"k  c #656273",
"l  c #6A6677",
"z  c #736D7B",
"x  c #746A73",
"c  c #6E7275",
"v  c #747374",
"b  c #73727C",
"n  c #6F6A80",
"m  c #776C85",
"M  c #6B7384",
"N  c #7B748C",
"B  c #7C7A8B",
"V  c #777786",
"C  c #7F7995",
"Z  c #827C8D",
"A  c #81778A",
"S  c #847D93",
"D  c #867996",
"F  c #78858B",
"G  c #868489",
"H  c #8B8394",
"J  c #8C829B",
"K  c #868499",
"L  c #958A98",
"P  c #949398",
"I  c #8A9498",
"U  c #8B86A3",
"Y  c #8F89A9",
"T  c #8D8AA5",
"R  c #928BA4",
"E  c #9489A8",
"W  c #9C97B6",
"Q  c #978DB2",
"!  c #A39CBB",
"~  c #A79AB9",
"^  c #9DAEAA",
"/  c #ACABAB",
"(  c #A8ADA9",
")  c #A9A8B7",
"_  c #B0A7B7",
"`  c #B3B5B5",
"'  c #C2B9BF",
"]  c #A99DC2",
"[  c #A6A2C1",
"{  c #ABA3C3",
"}  c #AEACC4",
"|  c #B5AEC5",
" . c #B6B7C9",
".. c #BDB3D2",
"X. c #BDB5DD",
"o. c #BDBCDC",
"O. c #BABAD5",
"+. c #B4B0CC",
"@. c #BEB5E3",
"#. c #BEBCE3",
"$. c #C2BBD4",
"%. c #C3BCDE",
"&. c #CABCDD",
"*. c #C4B6DB",
"=. c #C8B7C1",
"-. c #C1B6E3",
";. c #C6BEE5",
":. c #CABDE5",
">. c #C6BEE9",
",. c #CABEEA",
"<. c #C9B6E9",
"1. c #D2BCE4",
"2. c #D2BDEA",
"3. c #D2B6E5",
"4. c #CABEF1",
"5. c #C7BDF1",
"6. c #BDC2DC",
"7. c #B7D4DC",
"8. c #AFD2D5",
"9. c #9DDDEB",
"0. c #9ADAE6",
"q. c #9FDEF0",
"w. c #ADCEE7",
"e. c #B5C4E5",
"r. c #BDC3E5",
"t. c #BCC4EA",
"y. c #B4CDEB",
"u. c #BCCAEB",
"i. c #B6C9E5",
"p. c #ACD4E4",
"a. c #ACD5EC",
"s. c #A6DBEB",
"d. c #ABDAEB",
"f. c #A7D8E6",
"g. c #B4D5E5",
"h. c #B3D3ED",
"j. c #BBD2EC",
"k. c #B9DAE6",
"l. c #B9C9F2",
"z. c #A4DDF2",
"x. c #ACDBF2",
"c. c #AAD7F4",
"v. c #B3D4F3",
"b. c #B7D8F6",
"n. c #9CE5ED",
"m. c #96E7EB",
"M. c #98E5F3",
"N. c #8DECED",
"B. c #A7E7EB",
"V. c #A2E3F3",
"C. c #AAE5F7",
"Z. c #B5E7F3",
"A. c #ABF3F5",
"S. c #9BD4DF",
"D. c #CDCCCC",
"F. c #C8CDC8",
"G. c #D3C9CB",
"H. c #CCD3CE",
"J. c #C6D3CA",
"K. c #D1D3CD",
"L. c #CDCDD4",
"P. c #C4C2DC",
"I. c #CBC3DD",
"U. c #CCCDDA",
"Y. c #C5CAD8",
"T. c #D1C5DD",
"R. c #D4CDDB",
"E. c #D7CAD6",
"W. c #CED1D3",
"Q. c #C7D3D7",
"!. c #D2D2D4",
"~. c #D4D3DB",
"^. c #D8D9D9",
"/. c #E2DCDC",
"(. c #E1E1DF",
"). c #C5C1E4",
"_. c #C9C2E5",
"`. c #C4CBE4",
"'. c #CBCBE3",
"]. c #C5C2EA",
"[. c #CBC2EB",
"{. c #C3CBEB",
"}. c #CCCAEB",
"|. c #D1C2E5",
" X c #D3CCE5",
".X c #D2C4EC",
"XX c #D3CCEC",
"oX c #DACAE8",
"OX c #CDD2E4",
"+X c #CADBEA",
"@X c #C5D6E8",
"#X c #D4D2E3",
"$X c #DDDCE3",
"%X c #D4D5EC",
"&X c #DBD4EC",
"*X c #D4DDEB",
"=X c #DDDBEB",
"-X c #D9D4E6",
";X c #C4C3F2",
":X c #CCC3F2",
">X c #C8C9F4",
",X c #D2C5F2",
"<X c #D4CBF2",
"1X c #C5D4F1",
"2X c #C9D8F2",
"3X c #DDDBF2",
"4X c #D9D8F7",
"5X c #E3DDEC",
"6X c #E2DBE3",
"7X c #E3DCF2",
"8X c #E3D9F7",
"9X c #E0C3EF",
"0X c #C6E4EB",
"qX c #D8E4E8",
"wX c #C6E9F5",
"eX c #DCE4F3",
"rX c #D8E9F8",
"tX c #D9F7F9",
"yX c #CCF5F4",
"uX c #E7E7EB",
"iX c #E4E5F2",
"pX c #ECEAF5",
"aX c #E4EBFD",
"sX c #ECECFB",
"dX c #E8E5F8",
"fX c #F2ECF4",
"gX c #F3EBFB",
"hX c #F5E5FA",
"jX c #EBF3F5",
"kX c #ECF4FB",
"lX c #E4FCFF",
"zX c #EBFEFD",
"xX c #E5F4FA",
"cX c #F2F3F5",
"vX c #FDFBF5",
"bX c #F4F4FB",
"nX c #FBF5FE",
"mX c #F5FCFE",
"MX c #FDFCFD",
"NX c #F6F8F5",
"BX c #E9F2EF",
/* pixels */
">.;.).).).%.-.].;X5.[.].;.I.P.$.P.).;.].>.@.>.-.,.,X.X[._..X.X4.,.[.'.`.[.:X:X5.:.2.:.[.{.#.).:.:.I.&.I._.%.:.2.,X[.,.;.;.P.;.;.",
";.;.).].).;.;.;.>.[.].>.).&.%.'.).>.;.:X,X,.:.:.*.] Q E L R W X.-.W T L T Q ] #.|.|..X.X].].[.;.:._._.).%._..X-..X].;.;.).).).).",
").%.;.)._._.).).-.;.>.,.>.,.:X[.;X>.>.,.<X[._.oX_ s - + $ $ 0 ) ! 0 & * o 1 p +.oXP.&.2.].].;.;._.]._.[.).X.;._.,.:.-.-.:.].).;.",
").).;.)._.).).P.;._.;.;.,.4.,X4.>X:X-.) T L H L A s 0 5 7 3 k ) _ s 4 7 1 3 f F H S J T { >.[.:X].[.].].).;.).).;.:.:.;.;.;.,.;.",
")._.).).;._._._.)..X:.[.4.>.-.5.;.|...z % X % X : P L.W.W.D.U.P.T.E.F.F.~.Y.I , + % & @ l ...X:.;.#.#.[.].)._.o.;.;._.:.:.,.,.,.",
"_._._.).;.)._.|.|.:.;.[.,.[.>.] H G A j 8 8 8 6 f  .xXmXmXMXbX X XbXMXvXmXkX .j 6 6 6 q l A S U ] _.].;.].].X.r.;._.[.[.;.:.;.,.",
";.].;.%.%.&._.[.;.-.-.[.;.)...N %   % G K.(.^.D.D.!.#XBXzXkXaX}.{.rXtXtXrXOX~.~.^.!.^.W.H ;   * V o.}.*.[.,X].).%.).;.].,.:.;.;.",
">.>.;.%.%._.[..X<..X@.;.[.) G k w 8 t ` MXMXcXMXMX5X-XiXjXmXaX>Xv.wXyXZ.0XQ.#XgXvXNXmXuX( s w w k N { [.[.].[.>.6.%.).,.,.[.;.:.",
":X[.;.%.&._.,X,.[.:X<.[.%.v : v L.^.6XiXkX*XU.eXmXmXNXNXNXMXgX<X>XA.B.g.e.s.x._.-XtXeX~.L.$XuXJ.v ; z <.,.-.[.,.;.].[.).).)._.].",
"5.>.[.;._._.-.,.:X4.[.} B u y / bXmXkX8X4X).P.dXbXMXMXMXMXvXbXXXj.Z.wXU.#.c.c.y.k.2Xk.k.+XpXnXNX/ h s A ] ,.[.[.}.;.;.[._.P._.>.",
">.#.:X_.;.[.X.-.-.[.).m : c !.NXaXeX}.).>.-.].hXMXMXMXMXvXMXpXXXOXsXpX#X<.l.c.c.b.4Xb.n.f.`.=XiXcXL.x ; A &.}.].#.>.;.;.).%.;._.",
";.-.[.:X[.[.:.]..X{ N g j ( kXBXeX`.u.;.>.>.[.8XMXMXvXMXMXvXbXXXoXgXhXOXl.#.l.j.l.;X{.d.m.0.g.qXkXmX` x s m [ [.].].].[.).I.;.;.",
"#._.;.>.:X>._..X%.V = c ^.jXiX*XP.6.'.[.].[.}.hXbXMXMXMXMXMXfXXXoXhXdX X).5.].].t.#.;.u.z.m.9.p.0XxXjX!.h ; N P.).#.).[.:.).).:.",
"P._.>.5.-..XXX_ z g c ( xXzX%X`.%.%._.].;.%.P.7XMXMXvXMXMXMXbXXX:X8X5XT.;.].;.&.#.#.;.r.y.v.x.s.k.wXzXjX/ c s l [ }.,X;.:.I.%._.",
"P.%.[.4.@.].$.Z : j H.jXiX4X}.].,.,.%.:._.I. XuXMXMXMXMXMXMXsX}.5.:X X$.:.:.:.r.r.%.'.).>.:X{.x.f.p.0XjXMX!.f 1 K O..X-._._.X.].",
"P.).>.5.<.! m j v ( NXkX*X{.;Xt.4.>.*.:.:.%.&.-X5XbXMXMXbXuXeX].#.,.T.P.P.;.;.).].:.1.;.3.,.t.j.z.d.7.qXNXbX) z p N { [.,.:._.[.",
"_.P.).:X<.D * w W.mXBX+X}.>.<.[.}.).&._._.,.[.:.'.iXMXMXsX&X).:.;.>.>.;.>.;.;._.[.,.:.;.;.).).).x.N.v.1.3XtXmXE.w $ F }.[.,.<.).",
"]._.).,X<XD   8 $XMXqXY.;.-.,.&X8XdX5XdX8X X:.&.|.-X6X6X&XXX>.>._._.;._.;._.>.;.;.,.:.:.).;.6.#.u.v.Z.h.@X=XnX6X9   B `.].>.[.].",
",.[.)._.%.S = t qXkXOXr.;.). X5XnXMXMXMXnX7X_.I._._.P.P.].;X>.[.;.,.>.;._.;._.>.;.;._.].].;.;.;.:.:.b.M.S.Y.hX6Xg = V  .-.[.[.-.",
"4.[.;.! z h G ` eXiX).#.;.'.5XfXnXMXvXMXMXfX5XoX:._._.:.<.>.<.;X;.)._.;.).,.;.).].,.,.;.;.;.,.2.3.:.h.m.0.f.0XE./ G g l { |.,.].",
"<.:X&.J $ 9 !.MXaX4X}.[._.5XNXMXvXvXvXvXvXMXgX&X-._.].,.>.<.;.;._.;.].;.;.>._.,.;.;.].:.;.,..X,X:.:.6.w.d.0.g.~.fX!.w - U :.,.].",
"<.[.:.S   6 ^.nX*X}.[.<X5XcXMXMXMXvXvXvXMXMXnX&X;.;.].[.].].;.P.>.;._.;._.;.;.;.:._.;.).;.,.,.2.:._.&.%.j.a.1XeXnX6X6 O R 1.,.:.",
">X,X).H $ 8 !.pXY.o.,.8XbXMXMXMXMXvXnXMXMXnXgX&X[.:.,.].)._._.).;.].;.,._.,.;.;.:.:.).).,.,.<.2.:.).T.&.i.u.2XaXMX^.6 O J |.,X:.",
"[.[.oXH   7 !.MXqXXX,.3XMXMXMXMXMXMXMXMXnXuX=X|.].>.;._.%.&.I.:.;.;.;._.:.;.]._.,.;.:.).,.,.,.<.:.P.P._.u.x.b.8XnX!.e + H .X[.<.",
"|._.| V : j ~.mXaX3X X7XMXMXnXnXMXMXMXMXpX-XI.:.;.[.4.-.#.%.I.P.:.].,.;._.].;.;.;.P.;.;.;.,.,.;.).P.P.r.v.z.x.}.fX!.j , Z | *.1.",
":.~ s u P  .W.#X*X5XpXgXMXMXvXvXMXMXnXpX-XT.I.%.;.[.:X:X>.%.%.;.:.;._.;.;.;.[.;.)._.;._.;.].;.].].`.6.P.].v.x.n.k.Q.' P s p ! :.",
".XT * 5 W.bXOX6.Y.=XnXMXMXMXNXMXvXMXnX5XU.&.I.%.>.5.5.:X:X-.%.,._._.;.;._.;.;.;.).;.;.:._._.].]._.`.#.#.,.:Xh.m.7.Q.cXD.5 - Q ].",
"|.J * 6 H.mXsX#XP.#XMXMXMXMXMXMXvXMXMX7X_.&._._.-.@.5.:X:X[.-.;.;.,.;.].;.;.[.;.,.;._.].;.]._.].:.:.;.e.].4._.g.+XeXMXW.6 * Y [.",
":.E * 6 F.mXmXqXP.#XbXMXMXMXMXMXMXNXpX&X;.:.|._.;.-.@.>.[.[._.;.].;.;.,.,.;.].;.].;.,.;.;.).].).<.3.:.e.t.>.].1XwXtXzXF.4 $ T '.",
"oXQ O 2 H.MXzXqXI.#XbXMXMXMXMXMXMXpX X:.-._._.).).).,.;.;.).).;.;.;._._._.;.:.;.;._._.;.;.].).).:.1.,.;.r.>.y.V.A.Z.zXW.3 # R [.",
"|.! a d L.kXaX*X[.&XpXbXgXgXgXbXsX-XP.%.;.|.[.:.%._.]._.P.%.;.I.;.;.;.;._.,.].;.;.;.:.;.].;.).;._.,.:.:.:.).a.M.N.B.xXU.s 0 W [.",
":.+.] { P.OX}.].4..X}.%X,X.X&X#X-XI.%.%.;.,.[.;.%.;.;.[.).&.%.).;.[.].;.;.;._.:.:._.,.;.]._.).].;.2.3.&.;.r.y.f.p.j.}.P._ ~ ..[.",
"-.X.W _ T.oX`.y.{.u.t.[.oXoX XXX X XI.%.;.].,.,.-.;.;.].].;._.,.;.;.;._.>.;.>._.>.>.;.;.].,.>.].>.;.&.&._.].l.l.l.v.}.&.) ! ..].",
"|.~ a h L.kXrXyXC.a.u.&XhXsXgXhXsX&X'.%.-.;.;.].].,.[.,.].;.;.;.;.[.;._.;._.>.;.].,._.;._.;.>.:X>.).P.I.[.{.v.C.M.Z.aXE.k a ~ ].",
"oXR % < F.MXtX0XB.p.6.%XdXsXfXhXdX3X X%.-.).,.)._.].]._.:.;.;.;.;.,._.,.;.;._.;.;.).;._.;.].,.,.;.).I.).].u.x.x.V.A.mXG.3 # E .X",
"_.R % 7 F.MXxXwXj.6.o.`.OXoXR.OX.X'.).:.]._.,.;.,.;.,._.[.;._.:._.;.;.;.].;.].;.).;._.;.,.,.,.4.,.:.&.&.#.#.#.u.wXtXzX8.3 & Y [.",
"].Y O 5 H.mXeX0X1X).o.6.r.&.&.%.).;.%.;._.[.[._.;.;.<.]._.,._.].;.>.;.>.:.;.,._._.;._.,.,.,.,.,.|.:.&.:.<.X.e.g.+XjXmXF.4 $ T [.",
",XQ - 5 Y.lX+X1XC.h.i.i.;.,.<.<.&.%.%.:._.].;.;.;.;.;.;.[.;.;.;._.;._._.;._.;.;.;.;.;.;.;.,.,.:.:.).).).[.{.f.n.7.^.vXG.5 * Q .X",
"].W d f I  .OX4Xx.d.d.g.-.4.:X>.-.:.).;._._.;.;.>.>.>._.]._.;.;.>.;.;.;._.:.].;._._.;.;.;._.:.:.:.I.).`.j.x.d.B.qXR.' L r p ! ;.",
"`.6. .V : k U.hX|.7.B.g.;.,.>Xl..X'.).%.-.;._.[.].;.>.;.,._.]._.;._._.,.;.].:.;.,.,.].].,.;.:.:.).|.).y.z.M.a.`.hXE.j : F } O.[.",
";.|.R.G + 7 !.nX=Xj.x.y.).;._.>X[._.;.;.:.;.].].[.;.;.;.:.;.;.).].,.;.,.].;.;.,.;.;.,.,.,.;._._.r.:.|.).a.V.d.4XnXW.5 o K }..X%.",
".X X&.D % 6 ^.mXtX+X{.#.o.P.).:.%.;.-.;.:._._.[.[._.;.;.-.;.;.,.;.].).).;.;._.;._.;.;.].]._.;._.I.*.;.-.e.1X2XrXnX~.q & U ].[..X",
"-.4.1.L + 5 $XzXyXj.v.l.<.).).P.#.;.;.,._.;.;.;._.].[._.;.;.;.;.,.;.,.;.,._.;.;.,.,.,.;.;.;.;.1.1.&.3.3.u.j.+XeXMX$Xq o Y [.].;.",
"#.:X.XE @ 9 J.BXU.d.z.b.>X].6.6.;.[.[..X:.-.%.-.;._.[.[._.;.;.;._._.;.;.;._.].).;.].>.).).:.:.:.1. X.X,.v.m.p.~.fX!.9 - Y ].,X;.",
"t.>.2.] m l G ( D.+Xx.z.x.l.;.I.;.[.[.].;.;.:.;.>.].[.[.]._.;.,.;._.;.:.:.].>.>.,.;._.;._.;.;.;.1.].j.x.x.d.0XR./ G g z { ,.[.).",
"t.>.;.:.*.A = w qXhXOX0.M.v.;.1.;.;.].>.].;.;.,.[.,.;.-.;.;.,.:.>.>.].,.:.,.,.;.;.].;.:.;.).].).>.e.z.M.w. XgX/.y % B $.).].;.;.",
"[._.-.:X,XD   w qXMX5Xp.0.c.{.].:.;.;.].].>.>.>.>.>.;.X.%.;.[.,.].[.>.>.,.:.,.;._.).:.:.;.].].e.h.a.s.d.u.-XMX/.w   Z .X:X,.;.].",
"&.:.[.:X[.J * w J.vXcX*Xp.9.x.j.).;.).].[.[.].>.<.<.].;.;._.:.;.5.;X:X<.,.2.:.:._.:.|.:.,.].t.t.a.V.p.U.uXtXzXK.w = S ).:X,.4.;.",
"&.).;.].].{ V d v / jXxX0Xk.x.z.h.g._.:.1.>._.2.;.].r.)._.:.;.%.).).,.:.:.|._.%.).1.1.:.1.,.j.a.p.`.'.0XlXbX) b g z ) [.<.-.>.).",
"_.:.,X[.#.[...B : j W.MXkX0Xp.d.M.d.t.1.1.%.)._.|._.`.]._.:.:.<.;.%.;.:.:._._.|.;.&.&.:.].y.a.C.{._.+XyXtXW.j : Z $._.-.].;.;.).",
"&.%.[.].@.}.[.{ m s z _ jXzX0X@Xx.z.s.i.%.&.&.I.|.%.;.:.2.;.;.1.I.&.&.:.|.).)._.1.'.1.3.w.q.s.f.`.%XlXtX) b p b ! XX'.%.;.:.[.;.",
"%.P.;.).].;.;.XX&.A ; x !.jXjXqX,Xz.N.f.).:.|._.i.P.3.3.,.;.[..XT.I.I.I.1.).e.y.).].2.,.c.V.Z.Y.0XtXtX~.l 1 V %.,X-.,.[.;._.).;.",
"I.).).).].].[.:X[.] m h h / bXjXrXg.0.d.b.u.e.l.s.u.2.<.<.t.]._.;.%.;.;.:.,.y.q.d.;X{.v.a.w.j.-XxXtX^ l s M { 9X,X[.]._.)._.).).",
":._._.;.;.].>.;.-.;.*.m : v !.NXyX+X6.B.C.b.b.C.M.b.;X>.#.u.t.#.#.t.e.#.;.u.x.q.M.{.h.m.d.'.=XtXmXW.b ; M O.%.<.<..X-.;.).:._.:.",
":.|.[.).).;.#.].[.,X_.{ B k g ) jXmXsX0Xg.2X1Xv.c.z.z.y.i.h.a.y.l.v.a.u.u.a.B.a.v.1Xk.f.@XfXnXzX) g s D [ [.'.].[.,X:.).).-.[.-.",
",.:.;.;.%.o.).).[.,X-._.;.m : b E.6X$XR.I.3XaX4X1XM.N.a.j.x.z.v.l.C.x.j.k.n.V.'.4XrX*XR.L.uX6XK.v > M &.[.;.2.-.%.].].-.].,.;.'.",
";.,.|.[.).%.P.#.).[.#.].}.[ C k r q s / fXMXnXMXpXk.g.%XwXyXZ.{.l.V.A.Z.2X7.0XfXMXMXMXuX/ y 6 w j Z { :X4.,.XX;._.'._.>.>.>.>.>.",
",.,.,._.).;.;.;.o.).].].@.[.X.N %   % G !.6X^.!.!.L.OXiXkXzXrX[.h.C.A.tXeX~.E.E.!.#X$XL.G = . $ m .._.-.,X[.;.[._.;.;.,.;.,.].>.",
",.>.:.-.;.;.;.).[.).].[.;.[.[.{ H G V f q 6 7 6 j ' fXNXMXMXnXXX1XaXzXzXvXfX=.x 6 5 0 q x V G J ~ '.[.*.;.;.;.;._.;.-.:.,.|.].;.",
"].).;.:.-.;._.,.;.[.).].[.;.-.:.6.`. .l & X O O : L G.K.8.D.L.Y.I.E.L.F.H.G.P > o & @ - z $. X:._.;.%.;.;.;.[.X.,.,.;.;.,.[.[.:.",
").).%.:._.,.].,.&.).I.:._._._.:.[.{.].[ U T J K B i 7 5 3 3 s ) { k 5 7 7 7 w B K U Y Y { ].:X,X].:.-._._._.[.].>.,.:.;.;._.:.;.",
";.;.;.;.2.[.,.:.).).%.)._.:.:.:.].;.].].].[.[.,X..d * O $ $ 0 ~ ! 0 # $ $ % i | XX}.,.].[.,.-.4.;.;.)._.).;.).[.;.,.,.;.:.;.;._.",
";.;.;.[.].[.,.;.*._._.%.)._.;.;.].].;.[..X[.[.[.%.~ Q E E E W ..X.W Y R R Q W o.[.[.[.[.[.].,.,.[.-.;.[._.;.;.].>.,.].,.;.;.;._.",
")._.;.;.,.,.;.;.[.;.;._._.-.:.[.%.[.).;.:.;.;.;.].|..X_.>X:X[.).].,X,X[.}.[..X[.&.].,.].;.;.].;._.].;.;.:._.:._.>.;.;._._.>.).,."
};
