/* XPM */
static char *_5acc8b650e64e6b8d175b0323c26013FUbgQGSsCGdfXkWZ[] = {
/* columns rows colors chars-per-pixel */
"64 64 241 2 ",
"   c #010103",
".  c #040B05",
"X  c #03040B",
"o  c #0A0A0C",
"O  c #07080A",
"+  c #0D120C",
"@  c #0C0D14",
"#  c #0B0C1B",
"$  c #040715",
"%  c #0D1317",
"&  c #14141B",
"*  c #121A1C",
"=  c #171815",
"-  c #130F16",
";  c #221B1B",
":  c #1D211D",
">  c #22231D",
",  c #0A0D23",
"<  c #0D1628",
"1  c #131423",
"2  c #111A2D",
"3  c #151827",
"4  c #0E1932",
"5  c #0C1535",
"6  c #121634",
"7  c #131934",
"8  c #161B3B",
"9  c #140D23",
"0  c #251D29",
"q  c #1A2227",
"w  c #1B2537",
"e  c #2C2C2C",
"r  c #262727",
"t  c #312E2E",
"y  c #2D322C",
"u  c #2D2C32",
"i  c #2E2D3B",
"p  c #262737",
"a  c #312D33",
"s  c #312D3B",
"d  c #392F30",
"f  c #2C3232",
"g  c #2A333A",
"h  c #373738",
"j  c #33342B",
"k  c #413D3E",
"l  c #181B43",
"z  c #1C1E57",
"x  c #1D2647",
"c  c #1C2856",
"v  c #1F3254",
"b  c #272D48",
"n  c #283446",
"m  c #353947",
"M  c #283558",
"N  c #323C58",
"B  c #2A2C50",
"V  c #253363",
"C  c #2A3362",
"Z  c #2A3769",
"A  c #353B67",
"S  c #2C3A73",
"D  c #343C77",
"F  c #262F64",
"G  c #1E2961",
"H  c #423B47",
"J  c #453E54",
"K  c #374357",
"L  c #35434F",
"P  c #394667",
"I  c #364579",
"U  c #2F4172",
"Y  c #474748",
"T  c #4A4A55",
"R  c #554D55",
"E  c #565759",
"W  c #4E5150",
"Q  c #59625B",
"!  c #434867",
"~  c #4A556A",
"^  c #585A68",
"/  c #485777",
"(  c #4C5176",
")  c #665F74",
"_  c #685E7B",
"`  c #645C63",
"'  c #5B6167",
"]  c #58647A",
"[  c #67686A",
"{  c #72726D",
"}  c #76786B",
"|  c #666373",
" . c #6A6374",
".. c #6A647B",
"X. c #686978",
"o. c #6B7273",
"O. c #737473",
"+. c #7C7C7B",
"@. c #777978",
"#. c #706D70",
"$. c #615D5C",
"%. c #3F403B",
"&. c #817A7B",
"*. c #7D837B",
"=. c #83837E",
"-. c #2F3D83",
";. c #394987",
":. c #3B558D",
">. c #3B4D97",
",. c #3C5393",
"<. c #395499",
"1. c #2D5287",
"2. c #3D59A6",
"3. c #3E5CB1",
"4. c #3D61A7",
"5. c #424C8B",
"6. c #475586",
"7. c #555E88",
"8. c #424D94",
"9. c #44549A",
"0. c #445898",
"q. c #555B96",
"w. c #546383",
"e. c #586589",
"r. c #46629C",
"t. c #576895",
"y. c #576E97",
"u. c #6B6681",
"i. c #797785",
"p. c #657698",
"a. c #6E6D93",
"s. c #445CA5",
"d. c #4A5CA3",
"f. c #445DAA",
"g. c #4A5DAB",
"h. c #4654A5",
"j. c #465CB3",
"k. c #4C57A3",
"l. c #4563A5",
"z. c #4462AB",
"x. c #4B62AB",
"c. c #4964A7",
"v. c #5466AA",
"b. c #4B62B3",
"n. c #4962B8",
"m. c #5668B6",
"M. c #5B74BA",
"N. c #5D77A4",
"B. c #6577A4",
"V. c #6571B0",
"C. c #566DC4",
"Z. c #6A7ACC",
"A. c #817D87",
"S. c #7B8385",
"D. c #7288B6",
"F. c #7A8CC6",
"G. c #7A93C7",
"H. c #7D9AD8",
"J. c #7689D4",
"K. c #7C95E2",
"L. c #878788",
"P. c #959495",
"I. c #999998",
"U. c #908E92",
"Y. c #A39E9D",
"T. c #9DA19A",
"R. c #A5A49B",
"E. c #928CAA",
"W. c #9995AB",
"Q. c #9E9AB3",
"!. c #9E99BA",
"~. c #9E96B9",
"^. c #8D8CB5",
"/. c #A19AB5",
"(. c #A294BB",
"). c #A19ABA",
"_. c #A396B7",
"`. c #A29CAA",
"'. c #A7A9A8",
"]. c #AAA6BA",
"[. c #BCBCBB",
"{. c #B8B8B8",
"}. c #B0ADB0",
"|. c #C2BDB9",
" X c #BBC1BC",
".X c #C4C5BB",
"XX c #838DC8",
"oX c #8395CB",
"OX c #8498D7",
"+X c #9695C9",
"@X c #A598C4",
"#X c #8AA5D9",
"$X c #90A6D6",
"%X c #ADA7C7",
"&X c #BDB9D8",
"*X c #B6B0CA",
"=X c #899BE6",
"-X c #8499F2",
";X c #8BA8E7",
":X c #94ABE4",
">X c #95A8E8",
",X c #95B2EC",
"<X c #9AACF4",
"1X c #97B3F3",
"2X c #8DAFF2",
"3X c #BEBAE6",
"4X c #C3BBDD",
"5X c #C4BAD8",
"6X c #C3BDC4",
"7X c #C4BCE3",
"8X c #C5BBEC",
"9X c #CABDEB",
"0X c #C7B7E6",
"qX c #CABDF3",
"wX c #BCC4C5",
"eX c #BFC0DC",
"rX c #C3C3C3",
"tX c #C9C8C8",
"yX c #D6D8CB",
"uX c #C6C3DA",
"iX c #DADAD7",
"pX c #D0CDD0",
"aX c #E3DDDC",
"sX c #DAE1DA",
"dX c #E5E5DB",
"fX c #EFF2DF",
"gX c #CAC2E5",
"hX c #CBC3EB",
"jX c #CDCCEB",
"kX c #CAC5E7",
"lX c #D3C5ED",
"zX c #D3CAED",
"xX c #D5CCE7",
"cX c #CDC6F6",
"vX c #D3CAF2",
"bX c #D6C6F7",
"nX c #DBD5EB",
"mX c #E4DBE4",
"MX c #DCE3E2",
"NX c #E7E6E5",
"BX c #F3F1F0",
/* pixels */
"hXcXkXgXlX7XlXlXbXbXbXbXbXbXbXbXbXvXvXvXzXbXqXqXbXbXbXbXxXjXjXjXjXvXbXlXlXlXxXxXpXjXjXcXcXcXcXcXbXvXnXxXxXxXkXuXuXuXuX7X7X7X8X0X",
"hXhXgXgX4X7X5X9XlX9XqXqX0X0X0X0X8X9X9X4X4X4X3X0X0X0X0X0XuXeXwXeXgX3X7X0X5X5X5X5XuXeXeX3X3X8X3X3X3X7X4X5X5X5X&X&XeXeXuXuX7X9X8X8X",
"hXhXhXgXgX7X0X*X@X@X(.A.(.(.@X@X).).).Q._._.~.@X(.(._.`.Q.Q.Q.Q.!.!.!._._.(._.`.W.Q.!.!.+X!.!.!./._._._./.Q./._.].&XuXuXgX9X8X3X",
"3X8XhXhXlX0X@XE.A.A._ _ _ _ _ _  .X.| |  . .) ) &._  . .| ' | ' | | .._ _ ) ) ) | | | | X.] X.|  .) ) ) | ) ..i.W.].uXkXhX8XqX8X",
"8X8X8X9XgX5X~.u.T i p f 0 d a a u u f f y f f f s s i i u u p u u i p i s s s s a a a u u u f y t e u i i p B J u.W.5XjXkXhX8XqX",
"8X3X8X8X&X].i.T 3 + O % 0 9 - 9 * * * * * * * * 9 9 1 < 1 1 1 1 1 1 1 1 9 3 9 9 & = = & = = * * & & 1 1 9 # 9 0 R A.].&XgXhX8XhX",
"hX7X&X%XE.i.^ a .   @ w b n B b g n n n n g n n B n B M B B b B b b b M B B B B B b n b n n g n b n B b 8 9 $ o s ^ A.Q.%X3X8XcX",
"bX8X*X^.u.T u + . o p ! 7.q.a.7.6.w.] ] w.w.e.] ] w.w.7.e.7.7.7.7.w.7.e.e.t.e.q.7.7.w._ 7.] w.] w.e.y.w.! w @ X - s T u.E.%X8XhX",
"bX9X%XA.Y : . . . q P B.J.OXOXXXXX^.Z.^.XXXXoXH.G.G.G.F.XXXXoX+XXXoXD.G.G.G.H.G.G.G.G.oXG.D.G.G.G.G.H.G.y.K q O   o 0 J a.).0XlX",
"bX9X@X..i @ . . * L e.D.>X<X<X>X:X:X:X$X:X:X:X:X:X;X#X;X>X<X>X:X$X$X$X:X,X2X2X;X,X:X:X:X,X,X,X:X:X;X2X#XD./ w #   X @ s _ (.7XcX",
"bXlX).) r X + q K ] D.OX>X<X<X>X>X<X<X<X<X<X>X<X,X,X,X,X<X<X,X,X,X,X,X,X2X2X2X2X,X,X,X,X1X1X1X2X1X,X2XH.F.r.P x , $ $ p | !.7XcX",
"bX4X_.| e % q K e.D.D.$X>X>X>X:X>X<X<X<X<X<X>X>X2X2X2X1X1X,X,X:X,X,X,X2X2X2X2X2X,X;X,X,X2X2X1X2X2X;XH.G.M.c.8.-.x < $ i X.!.gXbX",
"lX0X_. .f * g / D.$X:X:X:X#X$XoX$X$XOX=X=X=X=X=X2X-X2X;X#X#X#XoXH.H.H.H.H.H.H.2X;X;XH.H.H.#XH.H.H.G.D.M.m.m.g.8.V 5 @ s X.).gXvX",
"lX5X(.` f * g w.^.$X,X1X:XoXD.D.p.y.p.B.V.XXOX=X;X;XK.H.D.D.p.y.y.D.l.D.D.D.D.D.H.G.D.D.N.N.y.D.N.y.r.1.9.g.g.h.Z l - a ..).gXvX",
"9X0X(.) f * n e.G.:X1X<X;XD.p.P L N N ! 7.V.Z.=X-XK.K.J.y.~ L L L K K L v P r.D.F.D.N./ P L K L L n g v Z ;.h.h.S l - s  .~.7XvX",
"9X0X(.) f * n ] oX:X1X1X#XD./ L q < & 0 B 6.V.Z.Z.J.J.v.P L q * * < 4 < q w L y.M.V.6.N w * 4 q < * + * x D 5.8.F 6 # a  .~.4XjX",
"bX0X_._ d 1 B e.oX>X>XOXV.B./ L f y q f L ! q.v.V.m.v.6.! m j > r u r y r g J ( q.7.~ m f e > r y > y y n A I -.B 9 @ e  .Q.5XlX",
"bX0X(. .s 3 n a.XX=XXXV.a.w.] ] o.o.o.o.' ~ ( D U I ( ( ^ ' [ [ | [ [ [ X.[ ) ~ I ( ~ ' [ [ { ` o.[ *.Q ' ~ A B 6 # @ e | Q.5XlX",
"lX0X_._ b 2 M t.XX+XB.P n T S.'. XwXwX].U.| m 7 < 2 p W o.I.}.*X|.{.*XrX[.}.L.^ m m [ U.'. X|.|.[. X X'.P.X.L < $ X O s ..~.&XzX",
"xX5X_. .s < B u.XX^.e.m i W U.wXMXNXBXsX].O.h = . . * %.S. XNXBXNXmXmXmXmXpXP.E e h [ }.aXfXNXaXmXdXdXyX'.o.f +     o a ..~.4XzX",
"zX7X~...s 9 b ! a.a._ T W $.L.}.rXpXtX*X'.+.E j = o + d L.pXBXBXmXuX5XtX6X}.&.k = y { .XBXBXmXpX6X.XrX[.I.[ n < X   O a ..!.4XzX",
"hX&X~.u.s @ 9 w ! ^ X.@.=.=.=.&.i.i.i.+.S.L.L.} W r = %.=.pXBXaX}.U.i.+.@.O.W > = e O.tXBXNX6XU.&.@.*.@.X.~ N v 2 @ o a ..~.4XzX",
"lX7X~...a o X $ 3 Y @.R. XR.@.Y r p u m E U.{.{.=.k > %.=.yXdX[.i.J s p f j : @ + j &.tXNXtXL.T e r f g K P I U x < @ u | ~.&XbX",
"bX3X@X..a O     . j } .XdX.X{ e       * Y U.yXyXY.W r h =.tXiX'.^ 0 X X % + . . o h &.|.iX[.{ y O X O 1 x U :.,.Z 5 # a [ Q.&XbX",
"cX3X+XX.s O       t &..XmX|.#.>       $ L P.iXdXR.E 0 H L.uXiX'.^ 1   $ 4 8 2 $ @ a =..XmX{.o.: $ $ 5 z V ;.9.9.V 7 # a  .Q.4XzX",
"cX8X@Xu.u O       t &.|.aX|.{ r       @ Y P.yXdXR.R 0 m L.tXiX'.E 3 $ 6 M V b < @ u @.6XdX[.o.q $ , z S 1.<.9.,.C 7 @ t  .).7XvX",
"cX8X@Xu.s O     O d &.6XmX|.} e O     @ Y P.yXsXY.E 0 m S.iXsX}.Q r 1 z D 5.C 8 # f @.wXNX*Xo.y , 8 S >.2.f.r.:.M 2 % a  .!.8XvX",
"cX8X@Xu.i O     O d &.6XaX{.{ y       & Y P.yXyXY.R 0 m S.yXMX'.Q : , 8 C A G 6 @ p @.wXMX{.o.y , 5 G -.>.h.l.:.M 7 @ a ..!.7XbX",
"cXcX@Xu.b O     O d +.rXmX{.o.e O     & T I.yXsXT.T q h L.pXMX'.E = O 9 8 x 8 9 $ f @.wXMX{.o.q $ $ 5 c Z ;.k.9.A 8 @ u  ./.uXvX",
"cX3X+Xu.a O     . t i.wXMX*Xo.r       & W I.yXyXT.W q L S.tXsX'.[ 0   . - - $ X X p S.wXMXwXo.r $ X $ < x D 8.8.C 8 @ a | /.4XzX",
"cX3X+Xu.i O     . j +.rXMX*XO.r     X - Y I.yXyXT.W q %.S.tXsX XO.h 0 ; ; ; = O . g o.wXMXwXS.L ; = = q i A ( ;.B 6 @ a | ~.7XzX",
"cX3X@Xu.s O     . d +.rXMX{.O.u     X - Y I.yXyXT.W q %.S.tXfXwXY.#.` $.$.E d ; * w *.wXMXpX'.i.$.E Q E ^ ! A V l # o t X.!.7XvX",
"jX5X/...s O       j +..XdX X@.u o   O + $.=.yXyXT.W e %.*..XfXfXpX{.].].}.Y.&.d ; j } |.NXfXxX6X}.}.'.R.L.' m 8 @ X o t ..).7XlX",
"jXuX/.X.s O       t +.rXNX*X@.f o     + Y =.yXyXR.W > d *..XfXBXNXaXmXmXmX6XA.R j j } }.BXBXBXmXmXaXfX.X'.o.g , $   . a X.).7XlX",
"jXuXQ.o.s O     O t +.6XNX[.@.e O   O + Y =.yXyXR.W > h *..XfXfXaXtXpXlXpX|.A.R > j } {.BXBXBXiXyXyXyX.XI.o.m < $ X X s X.).7XzX",
"jXuX/...s O     O a +.rXNX[.@.y .   + ; $.=.yXyXR.W t j =..XNXsX[.W.U.A.A.&.` d = > } |.BXaX|.Y.U.P.=.=.X.^ A x 5 $ O a X.).7XzX",
"jXeX`.X.s o O   o a &.6XdX X} r       - R I.yXyXR.R d k L.tXNXrXL.E J m J H d - + j *..XdX.XP.[ k k h H J ! I A x 1 @ u ..).4XzX",
"jXeXQ.X.b o     o d &.6XdX X{ r     X & H P.yXyXY.R 0 H L.yXMX}.| p # # 0 9 o o . y *.{.aX|.&.d + o $ 9 c D 5.,.V 2 @ a  ./.7XvX",
"jXeX!.u.s o     O a &.tXdX X} >       o R P.yXaXY.R 0 H L.tXMX'.^ * X $ 9 0 - o . f @.|.aX|.{ r o X , l G ;.9.<.Z 7 % e | /.4XvX",
"jXeXQ.u.b o X     d &..XdX X{ >       o Y A.aXmXY.R 0 H L.tXsX'.Q q $ < l B 8 9 + y } |.yX|.#.r # 9 8 F D >.s.,.Z 7 # d  .~.4XvX",
"jXeX!.u.n #     o d @..XiX X{ >     . = %.P.yXiXY.W ; h =.tXyX'.Q : % w S I M 7 % f @. XsX XO.e 9 l Z >.2.n.4.:.M 4 @ f | ).4XlX",
"jXeXQ.X.g # X @ 0 H @.'. XR.*.Y y r r h $.U.*X}.*.%.; h =.tXsX'.Q q < x U ;.Z w & f S.wXdX X{ y - l D h.n.n.z.:.M 4 $ e | /.7XzX",
"jXeXQ.X.i # , p N ^  .+.=.=.=.*.+.*.@.i.L.L.L.@.W > + %.=.yXsX}.' q < c ;.,.D z # g S.wXMX X} y 9 8 -.h.n.C.z.<.V 4 % f  ./.4XvX",
"jXuX'.| u 1 w ! p.a.] T W ' L.}.wXpXwXwX'.L.E h : . + %.U.yXMX}.^ q 5 v ;.8.D l 9 g i.wXsX{.{ > - l D h.n.n.z.:.M 4 % y  ./.7XzX",
"xX5XW.[ f * n w.D.^.7.N g T S.wXMXNXNXiX}.O.m 1 X X * L L..XtX'.' p 6 F ;.9.-.z 8 B i.{.yX'.[ y 9 l D k.b.n.4.:.M 4 @ t  ._.4XzX",
"xX5X`.) u * n a.oXoXp.P K ~ S.'.wXtXwX{.U.^ n 6 1 < n K @.P.'.L.^ B z S >.9.5.S M A e.P.'.S.^ g x F ;.d.b.b.l.1.v 2 @ a  .~.7XvX",
"lX5X~.) f 3 M t.oX$XG.S.t.] X.o.o.o.#.[ ^ T N C A P P / ' ' [ ~ P C S ;.8.h.k.8.8.6.] ' ' ~ P K Z ;.9.x.x.z.4.1.v 4 @ u  ._.7XhX",
"qX0X(._ n 2 n t.oX;X;X$XD.p.~ L p q r e n A ( 5.r.r.N./ P h g g D I ,.8.h.h.g.v.m.q.! B n n K I :.9.g.v.c.4.4.1.v < @ s  ./.7XvX",
"qX0X@X_ i 2 M e.OX>X<X1XOXD.~ x , $ $ < w C 5.v.m.V.M.t.K w q w S ;.h.2.d.r.b.C.C.v.I b 5 x Z :.l.l.c.c.j.f.0.1.G 4 @ e  .).7XzX",
"bX0X@X_ i 2 M t.OX>X<X<XOXV./ M l 8 w x M I 9.g.m.M.M.v.I M v M I <.f.l.d.r.c.D.M.c.;.V c v I <.c.c.l.f.j.j.4.<.V 4 % e | ).7XzX",
"bX9X@X_ s 1 B e.K.-X<X-XJ.Z.d.I A S D D 5.8.k.x.b.m.n.g.6.I I ;.,.<.2.4.r.r.c.c.m.z.,.I S I ,.r.r.l.s.2.3.j.j.2.Z 5 % a  .~.7XzX",
"nX9X]. .u * b / D.OX-XZ.Z.C.g.s.0.0.9.k.k.d.d.d.x.z.b.x.r.0.0.0.2.3.4.4.4.r.l.z.x.l.r.<.:.<.0.r.l.2.2.2.3.j.j.>.V 5 # e | ).4XvX",
"bXlX_.#.d - w ! y.V.Z.Z.C.C.n.j.d.x.j.j.b.g.d.l.l.z.z.n.x.c.d.g.3.3.4.4.4.l.l.z.s.g.g.g.g.g.g.l.l.l.f.2.2.>.;.D c 9 o u | ~.5XvX",
"mX0X_. .0 O % q K ~ 0.v.C.C.m.v.b.b.n.C.C.n.b.z.x.j.z.n.b.b.b.b.n.n.3.z.z.4.4.c.j.g.j.j.n.n.b.x.b.x.g.f.>.;.C b , X X r  .Q.4XvX",
"lX5X_. .d o   . 3 n P ;.d.c.v.r.f.j.3.3.3.j.2.s.s.3.f.j.g.j.x.x.f.3.z.z.3.4.h.h.g.g.g.g.g.g.g.s.s.d.d.9.;.C 8 # X   + a X.!.4XvX",
"lX5X].A.H r + .   * x A 5.9.0.:.>.>.>.>.>.>.<.:.,.,.<.<.>.8.8.:.<.<.<.2.<.<.>.8.8.9.8.8.9.9.,.>.,.>.9.5.Z l 9     o = H i.@X7XlX",
"uX5X%XP.X.W j -   X , l M M Z M M V V V V V V v V M V C C C F C V V V V V V V V F C C C C C M V C C M B p #     - e R u.^.%X8XlX",
"gX5X&X*XW.A.^ i . X X , < 7 7 7 q 2 5 5 5 l 4 4 4 4 7 6 6 6 6 6 2 5 2 4 4 4 6 4 6 6 6 6 7 6 6 6 6 6 6 6 , X   . e ^ i.E.%X&X0XhX",
"4X5XuXuX5X}.A.R 3 - X # # % @ @ @ @ # @ # @ @ @ % + @ @ @ @ @ @ @ @ @ @ @ @ @ @ @ @ @ @ @ # @ @ @ @ @ @ $ X o 3 T A.@X5X7X7X7XhX",
"uX7XuXkXxX5XW.u.T b 0 a s d t t u a t j f p f u a u j a t t t t a s a u s a a s a d s t d u s a a a a a u r i J u.E.5XlXhXhX7XgX",
"7X7XgXlXjX9X%X^.a.u.|  . .|  . ... . . . . . ... .| |  .|  . . . . . . .|  . ...| | | X. . . . ._ |  . .X.|  .i.^.%X7XhXhXhXhX8X",
"0X9X9XhXhX7X&X%X!.~.!.).).).).).!.).)./.).).~.~.!.!.~.~.~.~./.~./.Q.Q./.`./.Q./.Q.~././.Q.Q./.~._.~.Q.~./.~./.].%X&XgXhXhXhXkX7X",
"8X8X8X8X8X8X3X0X3X&X7X8X7XgXgX7X7X7X4X7X4X7X7X7X3X7X7X3X3X7X3XgX4X4X4X7X4X4X5X4X3X4X7X7X4X4X7X4X4XgX4X3X7X4X7X4X0X7X7X7XgXgXhX7X",
"8X8X8X8XqX8X9XcXlXcXbXbXhXvXvXjXnXzXvXvXvXzXzXzXhXhXlXkXlXjXjXjXbXvXvXvXbXvXvXbXzXjXvXvXlXvXvXlXjXlXvXlXbXvXvXlXzXhXhXhX7X7X9XgX"
};
