/* XPM */
static char *c1befd58044640f1a07f3f56ceb5f3f8i3xjqj5GvSEY42Dg[] = {
/* columns rows colors chars-per-pixel */
"64 64 247 2 ",
"   c #020101",
".  c #0C0103",
"X  c #0D0B0A",
"o  c #060808",
"O  c #1D020A",
"+  c #120A0B",
"@  c #170509",
"#  c #0B0C13",
"$  c #190C16",
"%  c #0B1213",
"&  c #151413",
"*  c #1B1215",
"=  c #1B121A",
"-  c #1B1B1B",
";  c #161B18",
":  c #10110E",
">  c #24020A",
",  c #2B010B",
"<  c #250309",
"1  c #270A12",
"2  c #390716",
"3  c #24171A",
"4  c #3A141C",
"5  c #30000C",
"6  c #1C211F",
"7  c #181A23",
"8  c #3B1A23",
"9  c #1C2323",
"0  c #222324",
"q  c #292729",
"w  c #37282B",
"e  c #33312E",
"r  c #2D2D34",
"t  c #2B2D3B",
"y  c #282935",
"u  c #322C37",
"i  c #2E3135",
"p  c #373636",
"a  c #28302D",
"s  c #4D051A",
"d  c #48071A",
"f  c #54051B",
"g  c #5A041D",
"h  c #54081E",
"j  c #54031A",
"k  c #43131E",
"l  c #570B22",
"z  c #451B24",
"x  c #4B1B25",
"c  c #4B1B2B",
"v  c #461825",
"b  c #58182A",
"n  c #50192F",
"m  c #670B26",
"M  c #750A2B",
"N  c #7B0C2D",
"B  c #77072A",
"V  c #69122B",
"C  c #73122D",
"Z  c #7A122E",
"A  c #7C0D31",
"S  c #7C1332",
"D  c #781836",
"F  c #48232B",
"G  c #592634",
"H  c #4D3038",
"J  c #68273B",
"K  c #74273D",
"L  c #41413F",
"P  c #343241",
"I  c #433E45",
"U  c #533A47",
"Y  c #6B3947",
"T  c #783449",
"R  c #722C42",
"E  c #3C4543",
"W  c #4B4D4C",
"Q  c #454547",
"!  c #56494B",
"~  c #49524D",
"^  c #51524E",
"/  c #4B4B56",
"(  c #554E51",
")  c #535353",
"_  c #595859",
"`  c #4C5352",
"'  c #655659",
"]  c #6E4755",
"[  c #685E75",
"{  c #6B5C63",
"}  c #5D656F",
"|  c #676868",
" . c #73676B",
".. c #656375",
"X. c #65647A",
"o. c #696479",
"O. c #6A6779",
"+. c #7C7C7B",
"@. c #767675",
"#. c #6E7075",
"$. c #5A5E5F",
"%. c #820B2E",
"&. c #830D31",
"*. c #8B0C32",
"=. c #930E35",
"-. c #990C36",
";. c #8B1235",
":. c #8C1639",
">. c #861536",
",. c #931236",
"<. c #94133A",
"1. c #9A133B",
"2. c #94173C",
"3. c #81112F",
"4. c #A10F3B",
"5. c #981A41",
"6. c #881F40",
"7. c #A51A46",
"8. c #892A46",
"9. c #982548",
"0. c #8B3B4D",
"q. c #8A344B",
"w. c #92364C",
"e. c #8B3A52",
"r. c #973A55",
"t. c #A7254D",
"y. c #A82A51",
"u. c #A83759",
"i. c #B5355D",
"p. c #B42A56",
"a. c #B13A61",
"s. c #C43A66",
"d. c #984359",
"f. c #8A4255",
"g. c #A94866",
"h. c #B8466A",
"j. c #B75374",
"k. c #827679",
"l. c #9A4564",
"z. c #CB446D",
"x. c #C64B71",
"c. c #D84B78",
"v. c #CB5B75",
"b. c #CA5676",
"n. c #D35B7B",
"m. c #D65577",
"M. c #CD4E6C",
"N. c #E2527E",
"B. c #CB617A",
"V. c #7B827E",
"C. c #81807E",
"Z. c #7B7889",
"A. c #6C6886",
"S. c #847885",
"D. c #D95B83",
"F. c #C15F85",
"G. c #E75986",
"H. c #EE5685",
"J. c #D86485",
"K. c #D7658E",
"L. c #EC638C",
"P. c #EC6B8D",
"I. c #E4658B",
"U. c #F3638C",
"Y. c #F7698C",
"T. c #EA6893",
"R. c #F46593",
"E. c #FB6594",
"W. c #FB6A95",
"Q. c #FC6C99",
"!. c #F46A96",
"~. c #F47196",
"^. c #7C8583",
"/. c #878787",
"(. c #9B9C9B",
"). c #959897",
"_. c #8F9090",
"`. c #A19C9D",
"'. c #A4979E",
"]. c #99A19C",
"[. c #938DA8",
"{. c #9898A6",
"}. c #9D9AB5",
"|. c #9E9AB9",
" X c #9A99B7",
".X c #8F8DA7",
"XX c #A19AB6",
"oX c #A19AB9",
"OX c #A397B7",
"+X c #A19EA1",
"@X c #9AA4AB",
"#X c #A6A6A7",
"$X c #AEB5B3",
"%X c #B6B7B7",
"&X c #ABADB4",
"*X c #A69DC0",
"=X c #ACA9C5",
"-X c #B3A9C8",
";X c #BCBCDD",
":X c #BDB7D8",
">X c #B1A9D0",
",X c #BCBCE2",
"<X c #9A9AC0",
"1X c #C3BBDE",
"2X c #C6B9D9",
"3X c #D1B5DB",
"4X c #C4BCE2",
"5X c #C5BBEC",
"6X c #C8BBE6",
"7X c #CDBAEB",
"8X c #BCC5C2",
"9X c #B9C2DC",
"0X c #BED2C9",
"qX c #BBC1E6",
"wX c #BBC5F1",
"eX c #C5C5C4",
"rX c #C9CACA",
"tX c #C9C7D7",
"yX c #CDD8D6",
"uX c #D5D5D5",
"iX c #D4DBDA",
"pX c #DBDBDC",
"aX c #D7D8D7",
"sX c #C7D2CC",
"dX c #E1DDDE",
"fX c #D8E1DD",
"gX c #CFE4DB",
"hX c #E0E0DE",
"jX c #CBC3E5",
"kX c #CBC3EB",
"lX c #C7C6E9",
"zX c #D4C5EC",
"xX c #D3CAEE",
"cX c #D5C7E9",
"vX c #CDCBF2",
"bX c #CDC6F2",
"nX c #D5C6F3",
"mX c #D4CAF2",
"MX c #D8C8F6",
"NX c #CFD6EA",
"BX c #E1CCE7",
"VX c #DBE5E4",
"CX c #E4E6E6",
"ZX c #FCFEFE",
"AX c #F4F8F7",
"SX c #ECF1F0",
"DX c #B3C8BF",
/* pixels */
"wXwX5X6X6X3X3XBXBXMXxXxXvXvXvXvXxXxXlXcXNXjXxXmXmXbXbXMXvXvXvXvXbXvXkXbXbXmXnXnXnXnXMXMXMXMXvXvXvXmXMXMXMXvXvXwXwXwXlX1X1X6X5X,X",
"wXwXlX6X6X3X3X3X3X3X1X;X;X9X9X9X1X1X:X:X:X2X1X;XtX,X,X,XqXqXqXqX,X,X;X;X,X4X4X4X3X6X2X4X5X4X,X,X,X5X6X7X5XqXqX9XqX0X1X2X1X6X5X5X",
"wXlXlX6X6X3X2X-X*XOXOX}. X X}.|.}.}.}.}.{.XXXX}. X X<X<X X<X|.|. X X X X}.|.OXOXOXOXOXOX|.|. X|.OXOXOX*XoX|.<X<X=X9X9XtX5XbX5X,X",
"lXlXkXkXcX3X&X[.S.A.[ X.} ..X.X.........| X.O.O.X.A.A.A.X.X.X.X.....} [ [ ..[ [ [ [ ....[ ....X.X.o.o.o.O...A.Z.{.=XtXjXzX7X5X5X",
"5XjXjXjXjX2X XX.I P y t P P y P t t i r r r a e y t P t t t t t r r r e r r r y u u u e r r r i r u p u w y i I O.[.tXcXzX5X5XbX",
"jX4XjXtX8X&X^.E 7 # # $ % = $ # = = = - * * * * $ # $ 7 7 $ $ $ * * * * * * $ $ * = $ $ * * & & * 3 3 1 > @ : 3 ` Z.&X2XjXlX5XkX",
"kXtX2X=X{.Z.$.y # # $ 7 8 n n c c x x x x x k x 8 n c c v n d v v x z z z x x x z z x x z z z z v x b x 4 O . X i _ Z.[.>X:X5XbX",
"cX2X-X.XO./ y % o # 8 R e.r.l.e.0.w.w.w.w.w.w.d.e.e.e.e.e.q.w.w.q.0.w.0.f.f.w.f.0.0.0.0.0.0.f.0.f.f.d.0.J 4 X   % t / A.[.>X5XbX",
"xX1XOXS.P 7 # o   = U u.D.G.D.c.m.m.m.m.m.M.M.M.v.v.v.m.c.N.c.c.M.v.v.v.n.n.B.B.n.v.v.v.v.v.B.B.v.J.n.b.d.J 3     o 7 I A.*X5X7X",
"xX4XOXA.P # o # 3 G T j.I.!.E.R.U.U.E.Y.Y.Y.Y.N.P.I.P.P.Y.U.U.U.P.P.P.I.P.R.Y.P.L.P.I.P.P.T.P.T.P.P.P.J.g.R 8 O     # P A.<X5XbX",
"zX2X[.[ y # # 2 J e.g.D.T.Q.Q.Q.W.W.W.W.Y.Y.Y.Y.Y.Y.~.!.E.E.E.E.Y.Q.~.~.!.E.Q.E.E.W.W.W.Q.Q.Q.Q.W.E.G.D.h.q.b 2 O . o y [ |.5XnX",
"BX6XOXA.t $ 8 R l.x.K.K.T.!.Q.E.E.W.W.Y.Y.Y.Y.Y.Y.P.P.L.Y.E.E.Q.Q.Q.Q.Y.R.T.R.R.E.E.R.R.!.Q.Q.Q.E.H.G.z.i.t.D m 2 O + y A.oX5XnX",
"MX3X X[ P $ n r.K.T.T.T.T.T.T.R.!.R.I.I.J.J.J.J.J.I.I.L.L.R.T.L.I.I.G.I.G.T.G.R.U.R.U.U.R.H.R.G.G.c.z.s.p.t.5.A d , $ t A.|.lXmX",
"MX3X X[ t 7 n l.K.Q.Q.T.K.T.T.!.!.D.x.g.d.l.d.l.j.v.N.G.R.H.D.c.x.h.h.x.c.D.H.G.G.G.H.H.H.D.x.s.h.u.i.p.t.7.5.&.h 5 @ t X.|.jXmX",
"nX4X|.[ t $ n l.G.!.Q.T.K.T.!.!.K.j.e.K G G G R e.g.m.G.H.c.z.h.q.T R e.h.c.c.D.c.N.N.N.c.h.e.R J R 8.7.7.7.5.>.h , + t O.OX1XmX",
"bX4X<X[ t $ n r.G.R.Q.!.K.T.T.T.F.l.J 4 3 + 1 8 J e.z.z.c.z.i.9.n 8 w R u.s.s.c.z.z.s.z.a.e.G 8 2 l D 6.1.5.>.A s 1 + y O.}.1XvX",
"vX9X<XA.t 7 w e.N.Y.Y.Y.P.I.F.F.j.f.U w q q q e U T y.a.p.a.w.R H e e H q.w.u.s.i.M.i.u.f.J H e w z b C S ;.;.A s , X y ..}.2XkX",
"NX9X^.A.t 7 v e.n.Y.~.~.P.B.j.l.] ]  .| | #.#.| ] Y J D D D K Y _ $.' ! J D 8.y.i.i.y.8.K Y ( _ _ ! G V m A &.N s , + r O.}.1XzX",
"vX9X@X} y & v e.n.N.~.~.P.b.q.G U { _.&XeXeX%X#XS.Y 8 2 2 2 n ' C.].).| H k V 9.i.u.8.b F ! @.].).@.! 4 d m B B f , + a X.}.:XxX",
"NX9X@X} y & v q.B.N.Y.N.J.g.Y 8 P ..+XyXCXSXCXeX_._ 0 # # # y | ].0XDXV.Q 4 x 8.p.w.J 4 3 L _.sXsX).^ 3 5 l A A f , @ r ..}.1XxX",
"NX9X}.} a & z 0.v.n.N.v.j.d.] Q ) @.].%XeXrXeX%X_.| Q r ; : 0 $.$XgXgX$X| Q U R w.K x < ; ~ ].iXgX].^ - < j B A g , + r O.|.1XzX",
"lX:X}.[ r & x 0.v.n.v.d.] f. .S./.C.C.k.k.@.@.+././.^.| p 6 6 $.].VXVXgX$X^. .] J k 1 . * ~ ].iXaX].~ - O j B A l , + r o.}.;XxX",
"jX2X{.[ e * F d.m.v.d.G F ! /.%X8X).{ L q q e H @.#X%X#X| q 0 ) #XCXAXSXVX8X_.' w $ . . * ) '.aXaX(.W * > j M A g , + r o. X1XzX",
"7X2XOX[ w 1 x d.m.v.f.k 1 ! (.uXaX`.^ & .   o 9 | $XVXrXk.a q ^ ].fXZXZXZXVX$X} 0       3 ( '.dXaX`.W * > j A D l , + y X. X;XnX",
"zX2XOX[ y = c r.D.b.q.4 * Q ].VXVX{.^ +       6 | %XCXsXV.p 9 ^ `.hXZXZXZXAX$X$.;   o   & ^ `.aXaX).` & O d C S l , X r o.|.4XnX",
"MX6X<X[ P = c r.n.b.q.4 * W (.gXgX].W $       6 | $XCXrXV.p 9 ) `.dXZXZXZXSX$X$.;       & ( `.aXaX(.` & O d C Z l , + r o.OX,XnX",
"nX,X<X[ P # n r.m.b.q.k 3 W {.yXyX].) &       0 | $XfXeXV.e 0 ^ #XdXZXZXAXfX#X| q o     & ~ `.aXuX(.~ & O h C C l , + u o.|.4XmX",
"MX5X<XA.P - n d.m.b.w.z = W ).yXyX(./ &     o q | $XfX8XV.p 0 ' `.dXAXCXaX$X).#.W a ; o & W ).aXuX(.~ & O d C Z j , + t O.oX1XmX",
"MX5XoXA.y = c r.m.x.q.v 3 W (.uXyX{.^ &       q #.%XhXeXV.p q ( #XfXVXeX].^.V./.^.| E ; & W ).uXaX(.~ : O j M Z g , + r O.<X6XmX",
"7X5XoX[ t = n d.m.b.8.8 3 W (.uXpX].! *       8 #.%XhXrXV.H q _ #XiXuX@X| Q $._.%X@X#.a ; W ).uXaX(.W * < j B N g 5 + r O.|.4XmX",
"MX6XOXX.t * c r.b.b.q.v - ` (.aXaX`.^ :       q  .%XhXeXk.e q _ #XgXrX/.E q _ ].fXtX/.L - Q ).aXyX(.~ * < j N %.g 5 X e O.oX1XxX",
"MX7X|...y & x r.m.b.q.8 3 ` (.uXaX`.^ :       q  .$XhXeXC.w 3 ' @XfX0X^.i 7 ) #XCXiX).L - L _.yXiX(.~ & < j 3.%.g 5 + y O.}.,XxX",
"mX4XoX..i * x d.v.b.e.8 6 ` ].aXaX].^ ;       0 { $XdXeX@.e 6 _ #XVXrXS.p - ) #XCXdX_.I 3 I _.uXuX(.! : < s C S h 5 @ r O.XX1XmX",
"mXjXoX..y * x d.D.b.e.8 6 ` (.yXaX].^ ;       9 | $XdXeX+.e 6 _ #XVXrX/.p 0 ( `.uXuX_.U q ! '.uXaX'.^ & 1 s C Z h , X r ..OX4XmX",
"MXjXXXO.i * x d.n.b.e.w 6 ~ ].iXpX`.^ &       0 | $XpXeX+.e 6 _ #XpXrX/.L 3 Q +.$X$X_._ U #.&XdXaX`.W & > s C S h 5 : r O.|.1XmX",
"mX4XOX..e - G u.D.b.e.8 6 ~ ].yXpX].~ ;       9  .$XdXeX+.e 6 _ #XVXuX/.I = 0 ! @.k./.V.^.#XuXSXaX).W & O d C C h , + r O.|.1XmX",
"mX1X}...t 3 c d.n.b.q.8 - ~ ).yXaX`.^ &       a | %XhXeXV.e 0 _ #XdXtX_.E & X - p ) +.{.-XpXAXAXaX_.Q ; O d C M h , + y ..oX4XmX",
"nX1XOX..w - b d.m.b.w.8 - ~ ].iXaX`.^ &       9 | %XhXrXV.p 0 _ #XdXrX/.I &     + e @.%XSXZXZXAXaX_.Q & O s M N g , X r o.}.4XxX",
"zX2XOX..i 3 x d.m.m.q.v 3 W '.dXfX`.! :       9 | %XCXsXC.p 0 _ #XBXuX_.P &       w @.8XAXZXZXZXaX_.E ; < s N N g 5 @ r O.OX1XmX",
"zX2XXX..a * b r.c.M.8.4 3 W '.dXhX`.! +       9 | %XCXuXV.p 0 _ #XdXrX_.Q #       e @.eXAXZXZXZXaX_.~ ; < s N %.g 5 X y O.|.1XnX",
"zX2XOX..a * x r.M.M.w.v 8 ( '.aXuX).^ & o     q | %XhXeXC.e 0 _ #XBXrX_.Q X     + e @.%XCXZXZXAX0X].E ; , l A A g 5 @ r o.|.4XmX",
"nX2XXX..y * x w.m.b.u.J H ] S.&X%X_.$.H a a a E @.$X%X`.{ q q _ #XdXrX_.p %   . 1 H  .).eXCXSXAXgX].~ ; 1 l B %.g 5 + r o.|.4XzX",
"vX;X}...a ; F w.b.D.x.d.T ] k.+.C.C.C.C.@.+.+.V.C.C.C.{ p ; 6 { &XVXuX_.p % . < s n Y  ./.$XfXSXgX].` 6 O l B &.g , @ r o.|.1XxX",
"vX;X}.O.e * F f.B.J.I.v.j.r.Y U ^ @.(.%XrXrXrX$X). .! e : : 3 ' &XVXyX_.E % O 2 m b c H ^ C.%XCXgX].~ & > d B A j 5 + r o.oX1XmX",
"NXqX|.} u - x f.B.K.~.~.n.g.J 8 e | `.sXCXCXCXrX).' 4 @ . O 8 { #XrX8X^.E * , j B V l 4 w _ `.sX0X_.^ 3 1 l B B l , @ r O.|.4XmX",
"wX9X X..u 3 F f.B.T.Q.Q.L.h.q.x F ' C.$X0XeXeX#XC.H d , < k F ' /.#X).| H 2 d m &.A m v c U k.`.].+.U 8 d m B B j , + r o.|.4XxX",
"vX9X@X..r 3 x 0.b.P.Q.Q.U.m.u.8.K Y ' | #.@.@.| ! V g g m D R ] ' | _ U F b m N *.:.6.D K Y ' ' ' ! J b V A ;.A l , + r o. X4XxX",
"vX9X}...r 1 x 0.m.Y.E.R.G.G.M.a.w.K G a a a a a F V N 3.6.y.e.Y H p w F l M B %.:.5.t.y.r.q.G w q z V V A ;.5.&.l , + r o.|.4XxX",
"vX,X}...r 1 x 0.m.L.Y.R.G.c.c.s.u.6.k < X o : $ d m *.4.p.p.u.8.F 3 1 d m %.,.:.,.9.t.i.i.8.b 2 , d m >.1.1.2.&.l , @ r X.oX6XvX",
"vXtX X..i 1 b 0.m.Y.R.H.G.c.z.i.9.3.h 2 1 < 5 2 f M =.4.7.p.t.>.m d 2 h B *.,.,.1.1.t.p.t.9.V k d s V >.2.1.2.>.l 5 + i o.OX4XmX",
"bX1X|.[ y $ x 0.m.Y.U.N.c.s.i.t.6.>.V V l l l m m %.-.4.7.7.5.,.Z M M M 3.,.,.2.1.1.1.7.4.5.Z V V V D :.2.2.;.3.s , + y O.}.2XmX",
"nX4X|...e 1 x f.M.n.G.c.s.i.y.5.6.>.S D 3.D S 3.3.;.<.,.-.-.-.=.*.3.3.;.;.,.:.,.,.,.,.1.1.1.;.>.>.:.>.:.;.3.Z m 2 > @ y X.}.1XbX",
"nX6XOXo.t $ 4 J r.h.h.s.i.p.7.5.;.>.:.:.;.:.*.;.,.1.1.,.,.-.-.-.*.,.,.2.,.,.,.,.,.,.,.,.=.=.-.1.2.1.,.2.3.Z V h 5 O X y X.}.1XxX",
"nX6XOX[ y . + 4 G T 8.t.t.t.7.-.<.<.2.1.1.;.=.=.,.1.1.1.-.-.-.-.,.,.2.,.,.,.2.,.,.,.,.,.,.,.4.1.1.1.2.2.Z V d 2 O . . y .. X1XxX",
"7X7XOXo.u # . : 3 8 V D 5.5.5.*.<.<.:.:.:.:.=.*.;.,.,.2.,.-.=.;.:.6.:.:.,.,.,.3.3.3.,.;.;.*.*.=.*.*.,.;.C d 1 +     X u O.|.4XmX",
"MX7X*XZ./ 7 X o   * 2 l B %.*.*.&.&.S S S N B %.N %.3.3.3.*.%.Z C C C C 3.3.3.Z Z C C Z Z Z Z B N %.%.Z g d @ o o o 7 I Z.oX4XbX",
"zX1X-X[.A./ t % o   O 2 s j j j f h h h h h f s f f g h f f f j s s h s h f f f s s s f f s j s j j j s 2 O o o & i / A.[.>X5XkX",
"jXtX:X-X{./.$.P %     O , , , 5 , , , , , < > , < , , , , , , < < < > < , > < , < < < < < < < < < , 5 , < .   o t _ Z.{.>X:X6XjX",
"jX1XtXtXtX=X^./ 9 % # # $ + @ + + + + + + + + + + + + + + + + + : + + + @ X + X + X X + X + + @ @ + + + .   X ; / Z.=X:X4XjX6XjX",
"jX1XjXjXjX2X[.A.P P y y t r r r u i i i e i e i r e e r r e r u a r e r r r r r r r r r u e y r a a y i y q u I A.[.;XkXkX5XlX4X",
"1X4XjXkXkXjX-X[.A.A.[ O.O.O.O.O.O.o.O.O.o.o.o.X.o...o.[ o.o.O...o...o.o.O.o.O...o.O...o...O.O.o.O.O...O.X...O.Z.[.=X6XkXkXlX5X6X",
"6X6X5XkX6X5X:X>X*X<X X|.|.|.}.}.oXoXoXoXoXoX|.|.|.|. X X|.}.}.oXOX|.OX}.OX}.oXoXOX|.oXOXoXoX}.oXOXOXXX}.oXOXoX*X>X;X6XlXkXkXjX6X",
"5X5X5X5X5X5X4X4X,X,X4X4XqXtXjX1XtX4X1X4X4X1X1X;X4X,X4X1X;X4X1X4X4X4X4X1X4X4X4X2X4X1X1X4X4X4X4X1X1XjX4X1X4X4X2X4X4X4X4X5XjX5X4XlX",
"5X5X5X5X5X5X5XbXbXnXmXMXmXmXMXmXmXmXmXmXxXxXnXxXbXnXkXkXxXbXxXxXmXmXmXmXmXmXmXmXmXmXmXmXmXxXmXxXbXvXmXmXxXvXmXmXkXkXjXjX6X4X6XlX"
};
