/* XPM */
static char *dadaaa4f70f743c2873e65dbfcad0458YxMmAcrXsocFU1R4[] = {
/* columns rows colors chars-per-pixel */
"64 64 242 2 ",
"   c #040201",
".  c #0B0304",
"X  c #090807",
"o  c #15030B",
"O  c #1A040C",
"+  c #16090B",
"@  c #160612",
"#  c #1A1517",
"$  c #0F120F",
"%  c #2D010D",
"&  c #22070C",
"*  c #33010E",
"=  c #3B000E",
"-  c #240B12",
";  c #2B0916",
":  c #350212",
">  c #3B0214",
",  c #380A1B",
"<  c #261318",
"1  c #38131C",
"2  c #1C1F2F",
"3  c #271A26",
"4  c #381726",
"5  c #3C162B",
"6  c #1E2327",
"7  c #23222B",
"8  c #282528",
"9  c #362A2C",
"0  c #232433",
"q  c #2B2735",
"w  c #382937",
"e  c #35353A",
"r  c #2F313E",
"t  c #47081B",
"y  c #59061D",
"u  c #67061C",
"i  c #4A0E24",
"p  c #5D0C23",
"a  c #590A24",
"s  c #441523",
"d  c #4B1425",
"f  c #481929",
"g  c #591A2B",
"h  c #56162A",
"j  c #481E31",
"k  c #5C1F32",
"l  c #650623",
"z  c #630A24",
"x  c #6B0A27",
"c  c #770C2B",
"v  c #68142C",
"b  c #681B34",
"n  c #7C1333",
"m  c #781A36",
"M  c #72162E",
"N  c #482638",
"B  c #5D2333",
"V  c #552432",
"C  c #43343B",
"Z  c #5A323E",
"A  c #4F212C",
"S  c #622335",
"D  c #6C2238",
"F  c #77243C",
"G  c #3B3744",
"H  c #332F40",
"J  c #4A3748",
"K  c #573A47",
"L  c #4C2A41",
"P  c #7B2942",
"I  c #683745",
"U  c #77374B",
"Y  c #3D4842",
"T  c #4A484A",
"R  c #494555",
"E  c #554758",
"W  c #574F52",
"Q  c #6A4552",
"!  c #5C5C6C",
"~  c #585768",
"^  c #5C5C72",
"/  c #585C72",
"(  c #4C5165",
")  c #63586A",
"_  c #6A5A6D",
"`  c #5C616C",
"'  c #67666A",
"]  c #696778",
"[  c #746A7C",
"{  c #777274",
"}  c #776569",
"|  c #850C2E",
" . c #8B0D33",
".. c #930E34",
"X. c #841334",
"o. c #8B1534",
"O. c #8B153A",
"+. c #871838",
"@. c #96163B",
"#. c #8D122F",
"$. c #A3153F",
"%. c #87223D",
"&. c #9B1D43",
"*. c #941E41",
"=. c #8F1F43",
"-. c #A31D45",
";. c #A91D47",
":. c #B41E4B",
">. c #832B44",
",. c #892946",
"<. c #932344",
"1. c #9B2343",
"2. c #9C2C4D",
"3. c #962A4B",
"4. c #86334C",
"5. c #97304E",
"6. c #992E51",
"7. c #9B3454",
"8. c #963653",
"9. c #8B3A56",
"0. c #A32242",
"q. c #A4234A",
"w. c #A32B4D",
"e. c #AA254B",
"r. c #AC2B52",
"t. c #A62F56",
"y. c #B42B54",
"u. c #BA2B53",
"i. c #B82C57",
"p. c #AB3255",
"a. c #AC3559",
"s. c #A33A5B",
"d. c #A73659",
"f. c #B33154",
"g. c #B3345B",
"h. c #BA335C",
"j. c #B33A5D",
"k. c #BB3B5D",
"l. c #B63455",
"z. c #B3294E",
"x. c #AC3C61",
"c. c #B53D62",
"v. c #BC3B63",
"b. c #BD3D6B",
"n. c #B73B69",
"m. c #C33B5D",
"M. c #C3315B",
"N. c #C33562",
"B. c #C93663",
"V. c #C33C65",
"C. c #C93C66",
"Z. c #C43D6A",
"A. c #CA3D6A",
"S. c #D23A6A",
"D. c #C83E72",
"F. c #984359",
"G. c #B7425E",
"H. c #A3435F",
"J. c #B64367",
"K. c #BB4265",
"L. c #BC426B",
"P. c #B54569",
"I. c #B1476A",
"U. c #8D7279",
"Y. c #C7425E",
"T. c #C4426A",
"R. c #C74268",
"E. c #D6476C",
"W. c #D54775",
"Q. c #D85678",
"!. c #CD4C72",
"~. c #EA5379",
"^. c #80807E",
"/. c #777588",
"(. c #747589",
"). c #837D94",
"_. c #83768B",
"`. c #E65883",
"'. c #EA6384",
"]. c #7F8194",
"[. c #868499",
"{. c #948A92",
"}. c #988DA7",
"|. c #8D93AA",
" X c #9593AB",
".X c #9B94AC",
"XX c #9899AC",
"oX c #9997B4",
"OX c #948EAF",
"+X c #A59DB8",
"@X c #A590AF",
"#X c #9DA5BC",
"$X c #A7A4BA",
"%X c #B2A8AD",
"&X c #A29396",
"*X c #C3B7B9",
"=X c #ADABC4",
"-X c #AAA7C5",
";X c #B5A9C8",
":X c #AEB1C9",
">X c #B5B5CD",
",X c #BBB5D5",
"<X c #BDBAD3",
"1X c #BDB5DB",
"2X c #BCBBDB",
"3X c #B5B6D5",
"4X c #AFA8D1",
"5X c #BEBAE4",
"6X c #9F98C1",
"7X c #C1BCD4",
"8X c #C3B6DB",
"9X c #C2BBDC",
"0X c #CABBDD",
"qX c #C3B4D4",
"wX c #C4AED0",
"eX c #C5BEE5",
"rX c #CABDE5",
"tX c #C6BEE8",
"yX c #CABDEA",
"uX c #C3B6E3",
"iX c #D2BDE9",
"pX c #D5BEE5",
"aX c #CFBFF0",
"sX c #BDC3DC",
"dX c #BEC2E5",
"fX c #C5C2DD",
"gX c #C5C1E5",
"hX c #C9C1E6",
"jX c #CCC9E4",
"kX c #C5C2E9",
"lX c #CAC2EA",
"zX c #CCCAEC",
"xX c #C6CBEC",
"cX c #D3C4E6",
"vX c #D2C4EB",
"bX c #D1CBEB",
"nX c #D8C7EB",
"mX c #CECBF2",
"MX c #D2CAF2",
"NX c #D5C8F1",
"BX c #D2D1EF",
"VX c #E0C7EE",
/* pixels */
"tXhXtXhXeXhXtXrXgXtXrXgXrXhXrXkXeXeXhXrXhXhXhXhXeXrXrXrXeXrXtXgXhXhXgXtXeXgXrXrXhXrXtXtXtXgXhXtXtXeXtXtXtXgXtXrXhXtXtXtXtXhXtXeX",
"tXtXtXtXtXgXeXhXgXrXhXeXgXtXgXrXeXhXhXeXhXeXeXgXeXeXhXgXgXtXeXeXrXrXrXhXgXrXtXlXtXgXgXlXkXrXyXrXeXrXhXfXkXgXlXtXtXtXtXtXtXtXlXrX",
"eXeXtXeXtXrXrXhXtXeXgXeXeXrXtXrXhXlXhXhXhXeX0XeX0XeXgXgXfXgXeXeXuXrXhXhXgXgXeXgXkXkXlXlXMXvXNXnXnXnXcXcXjXjXgXdXtXlXlXtXyXtXtXiX",
"tXtXtXeXtXhXgXeXeXrXtXeXeXtXtXgXhXhXhXhXhXtXgXeXeXgXgXdXgXgXrX0X0XrXhXhXgXgXgXeXkXkXkXgXeX0X0X8XwXqXqX7X7XsXgXdXgXkXkXmXlXaXaXaX",
"tXhXtXtXeXeXgXtXrXtXhXeXgXrXgXtXhXhXhXhXgXeXeXuXeXfXdXdXgXgXeXrXrXrXrXyXtXtXgXgXhXgX9X>X$XXXXXXX.X.X.X XoX-X1XgXkXkXkXlXlXaXaXaX",
"lXlXlXtXeXeXeXeXlXhXhXtXrXgXgXrXeXeXgXtXeXeXeXeXrXgXgXjXxXkXrXpXpXrXyXyXtXgXgXfXlXjX<X+X/.` ~ ~ ! ! ~ ! [ [.-XtXmXxXkX5XtXtXaXtX",
"mXlXlXtX9XuXeXtXhXlXhXtXrXeXtXtXeXeXeXeX9XuXeXeXhXhXkXhXhXlXiXyXiXiXrXuXtXgXgXgXjXfX$X).E r 8 6 0 0 3 0 G ] @X8XlXxXgXdXdXdX5XtX",
"lXMXvXtXuX9XeXgXlXlXhXgXtXeXeXeXeXtXgXeX5XuXeXeXlXlXlXlXlXhXiXcXiXuXyXeXtXgXgXfX<X$X}.] J 3 # # < < @ @ 3 J _.+X,X3X2XdXdXkX5XtX",
"hXgXtXeXeX9XeXtXlXhXgXeXuXeXtXtXlXlXlXtXtXuXeXtXhXgXhXgXtXtXtXkXyXiXuXuXlXzXxX>XXX].' W T B B I S k i , i L Q _.}.$X7XfXzXjXgXgX",
"eXeXuX9X9XuXtXhXhXtXeXuX9XeXtXkXkXlXlXlXtXtXtXtXtXhXeXeXeXtXtXkXuXyXuXuXkXzXjX:X].T Y Z Q F.G.G.I.H.3.b h f N J ] {.<XfXbXzXxXgX",
"2XuX9XuXuXeXhXhXgXtX9X2XuXtXlXlXmXvXlXlXlXlXtXtXtXtXeXeX5XeX5X5X5XaXaXyXgXgX>XXX' e 1 B H.Q.~.~.`.`.n.&.n a i 4 K /.+XfXgXjXjXkX",
"9XuXeXeXtXgXhXhXhXtXuXuXuXtXlXlXlXlXlXtXtXtXtXtXtXtXeXeX5XeXtXuX5XdXaXtX3X-X|./.W C V %.I.~.~.~.`.W.D.i.=.b t , N Q _..X=X,XgXxX",
"eXtXeXhXlXlXlXlXrXtXtXtXgXtXlXlXtXtXtXeXtXtXtXtXtXrXrXrXrXrXtXtXdXmXBXdX#X].~ E Q Q F.G.Y.E.Q.E.W.E.R.a.w.%.v p f N E ' [.-X0XzX",
"gXtXhXlXlXlXlXlXkXkXtXtXkXlXlXlXtXeX5XeXtXrXtXlXlXyXrXyXyXrXyXrXxXmXxXsX|.( w w 4.I.Q.Q.R.Y.Y.m.Y.G.G.G.a.5.%.b h t 3 G [ +X2XzX",
"tXlXlXlXlXlXhXtXtXtXlXlXlXlXtXtXeXeXeXuXtXtXkXtXtXeXeXrXrXtXlXlX5X1X:X|.(.E N k 7.!.~.~.E.Y.Y.m.k.k.G.K.j.p.%.m p : o 7 ) .X<XzX",
"gXrXgXhXhXhXeXeXtXtXtXlXyXlXyXtXeXeXeXtXrXgXlXgX5XeXuXeXrXlXvXvX2X#X].(.~ W U 4.G.!.Q.~.E.Y.Y.m.m.k.m.m.m.l.w.%.z * o 3 ) .XqXBX",
"rXhXeXeX0XeXeXuXuXtXlXlXlXtXeXeXeXeXtXlXlXlXlXtXuX9XtXkX5XlXbX0X=X].( J J 9.I.!.W.S.S.S.S.A.D.D.B.m.B.C.m.z.@.o.u = O 8 ) @XfXBX",
"eXeXeXeXeXeXeX5XeXtXtXlXtXtXeXeXtXtXlXkXlXlXhXtX9X5XeXkXeXhX0X;X}._ 9 3 V F.`.`.W.W.D.B.A.D.B.D.V.m.V.R.m.l.0.o.p = & 8 ) XXfXnX",
"hXeXeXeXeXtXeXeXtXtXkXtXtXtXeXtXtXlXhXlXhXhXtXeXgXeXlXbXgX,X+X[.[ K 4 t b 7.Q.`.`.D.Z.n.Z.D.b.b.v.V.C.C.m.M.0.o.p = + 8 ' .XfXbX",
"hXhXhXhXrXtXkXkXlXlXtXtXtXeXtXuXtXgXlXrXtXgX0XeXjXlXMXNXjX-X/.~ C j d M %.a.R.E.!.D.b.b.b.n.I.n.v.V.C.C.m.l.0.o.p t + 8 ! .X7XjX",
"hXhXhXlXlXlXlXlXlXlXtXtXeXeXtXtXeXhXtXgXeX9XgXgXjXjXvXjX3X|.~ H ; t v o.$.l.G.G.L.L.L.L.b.n.n.n.v.v.Z.C.m.u.0.o.z : o 7 ~  X<XfX",
"hXhXhXgXhXlXlXlXlXlXtXtXeXeXtXkXtXeXeXeX9X0XgXjXzXcX7X=X|.(.J 5 , a o.;.z.l.l.G.n.L.L.L.b.n.n.n.b.b.Z.C.N.l.0.o.p * o 6 ~  XfXfX",
"tXeXeXtXtXlXkXlXlXtXeXeXeXtXlXlXeXeX9X9X0X9XhXjXbX0X$X/.~ J j i y | -.u.M.k.j.J.L.L.L.b.n.b.D.b.Z.Z.Z.T.k.y.1.o.p : o 6 `  X<XfX",
"eX0X0XeXtXtXtXtXtXtXuXeXtXtXlXlXgX0XeX9X2X0XjXcXhX>X[.~ r 4 i a X.-.:.M.m.h.k.b.b.b.b.b.D.D.D.B.Z.n.b.v.k.f.1.+.v : + 6 ~ XX<XjX",
"2X0XeXeXeXeXtXgXtXtXeXeXtXlXlXlXjX5X2X9X0XjX0X,X4X X] J ; % a =.&.;.z.p.p.h.m.v.K.V.Z.T.Z.A.Z.x.t.x.x.c.v.f.1.+.u * X 0 ! }.<XcX",
"eXeXeXeXtXtXtXtXrXtXeXuXuXtXlXmXeXeX0XhXjXjX3X$X[.] K w , a n &.q.&.o.F ,.p.V.R.K.R.T.R.A.B.g.,.m P 4.x.v.h.q.o.z * o 7 ! .XqXcX",
"0XeXeXgXgXhXrXtXeXeX5XuXeXeXlXlXlXhXhXcXjXgX4X).( H 5 j v n &.y.r.+.d 1 g ,.g.Z.R.T.R.R.R.v.3.b i i D x.v.i.q...z : + 7 _ .X0XnX",
"gXeXgXgXlXlXkXrXeXtXtXuXeXtXgXlXlXhXhXfX2X>XOX] H 3 , a m &.r.y.w.F f 1 A F d.G.K.v.R.K.c.a.>.g 3 5 B 8.j.y.-.#.z * X 0 ) .X0XVX",
"rXtXgXkXkXlXhXhXeXeXtXeXeXeXgXlXjXvXiXwX6X}.(.J 5 , i n =.&.1.3.F F K K Q Z >.8.d.G.Y.d.%.%.I I T T I 4.%.<.@.o.z > @ 7 ) .XqXVX",
"eXeXgXgXgXjXhXhXiXyXtXtXtX5XkXkXNXnXVXwX).) J j h a c *.2.<.F g Z U.^.&XU.Q V B ,.j.k.3.S A Q U.&X{.} Z g z m +.x : o 3 ! .XwXpX",
"eXrXgXgXdXgXgXcXiXrXrXrXkXkXdXdXcXpXwX).) H 5 i v n &.t.t.,.h 4 C } %X*X&XW 9 1 F p.G.%.A < T ^.%X%XU.C ; t v n x , o 8 ) }.wXpX",
"rXrXgXgXgXgXfXhXpXiXhXlXkXdXdXdX1X;X@X_.K 3 : i n &.t.h.n.,.f @ 8 W &X*X^.Y # & b 7.p.F 1 $ Y ^.%X%X' 8 o * p +.x > o 3 ) }.wXVX",
"kXgXgXgX9XuXrXrXcXhXhXlXgXxXdX2X6X).(.E L i a v 1.w.h.B.k.5.f + $ Y ' { W 8 $ # k 7.t.b < X 6 T { ' Y # . % y c x , @ 0 / oX8XnX",
"jXjXeX2X5X8XuXeXlXyXyXrXgXxXdX>X).( w 5 h b F <.w.a.v.A.C.5.g O X $ 8 9 6 $ + < b 5.7.D < X $ 8 9 9 # $ . % p c z : @ 0 ^ oX8XnX",
"kXgX0XuX8XuXtXtXlXlXvXyXfX9X:X|.(.H ; , v =.2.r.j.J.T.R.C.t.b , X X X   X + & s P 8.7.P f O X X X X $ X & t l c z , @ 0 ] oX9XNX",
"lXlXtXuXuXeXtXtXkXmXNXhX,X$X].] R w , i n =.y.i.k.c.T.A.Z.a.,.b 1 + .   . - s S 4.8.s.4.D d ; X . . $ < d v | | x : @ 0 ^ oXfXNX",
"hXhXrXeXtXyXlXyXlXNXNXlX-X].( G 4 f h M <.w.j.k.v.v.V.C.Z.b.t.5.D s O   + d F 7.s.x.H.s.3.,.h ; X X 1 S >.<.O.O.a , @ 0 ^ OX2XzX",
"hXhXhXhXlXlXlXvXaXiXhX2XoX' e < , g F <.w.l.k.k.V.V.V.v.N.N.n.b.d.b , O 1 F d.K.P.P.P.n.n.t.P i & ; g 4.a.r.-...x : @ 2 / |.3XzX",
"0XrXeXhXlXlXNXiXiXqX-X}.(.R 4 : t M @.w.l.G.k.R.C.C.V.v.V.Z.W.D.v.,.B f b 5.k.Z.T.T.L.Z.Z.N.2.m d g F d.h.i.e...x > @ 0 / |.2XxX",
"pXuXtXjXlXlXnXiX0X-X[.^ R N s a x %.w.l.k.k.m.B.B.B.N.v.v.A.D.S.Z.x.4.P 4.a.T.R.T.T.Z.n.A.B.i.6.4.,.7.G.g.i.:...x > @ 0 / |.2XmX",
"0X0XrXiXlXcXcXpXwX).) w 3 s v X.@.e.f.l.G.K.R.R.B.B.V.M.v.V.D.T.Z.L.c.s.c.J.Z.S.A.A.Z.Z.A.B.M.N.g.c.c.c.l.u.;...x t o 0 / XXsXxX",
"0XuXrXlXhXhXqX;X@X/.K 3 , i m &.e.f.l.k.Y.Y.R.m.C.V.V.m.N.V.Z.A.b.n.s.s.s.n.Z.A.R.R.C.A.S.B.v.g.s.s.a.J.k.u.0.#.x > o 7 ` |.dXBX",
"pXrXrXcXjX<X+X)._ E N i i v =.r.l.M.V.C.m.R.V.V.V.V.V.V.Z.Z.B.A.c.7.>.P ,.p.v.C.R.C.Z.S.S.S.g.5.P >.8.s.k.u.0.$.u = . 3 ~ XXsXBX",
"pXiXiXlXsX$X[.~ G 5 f h m <.r.h.m.m.C.C.C.C.R.V.V.Z.V.V.A.B.Z.B.t.P h s g <.g.m.C.Z.T.E.S.C.t.D s h F s.c.l.0.@.u t O 8 ` XXsXjX",
"vXvXjXxXsX#X{ Y # ; i c =.e.i.v.C.A.A.A.C.C.V.v.v.V.v.V.C.V.V.V.w.m 1 ; s F 2.l.g.a.G.K.v.j.>.h < 1 b 8.G.l.0.#.u = o 7 ! XXfXjX",
"yXvXlXjXsX$X] r . & y c &.z.v.A.R.A.Z.Z.Z.Z.v.v.V.v.V.T.T.Z.V.k.p.P g s d v F %.>.F >.>.>.P D h f h P 5.l.l.@.+.y * . 7 ~ }.fXbX",
"lXyXjXxXsX#X] r O % y | ;.u.M.A.A.Z.T.b.L.n.b.v.v.V.k.V.K.J.K.K.x.7.,.F D g s 1 1 s 1 1 s f g S P P >.<.@.%.%.F y * . 3 ) }.7XjX",
"yXlXxXBXsX#X] e & * y | -.:.i.N.C.Z.b.n.L.c.b.v.M.V.v.v.K.K.J.P.L.J.K.a.%.A - + + + # + + - s P 2.t.2.*.o.o.X.M p * + 8 _ &X7XjX",
"kXkXdXxXfX$X{ G + % a | &.:.:.M.k.v.v.L.P.c.c.b.V.V.k.c.b.J.J.P.T.T.R.v.5.b 1 # - < < < + , h P f.g.e.&. .n v h d f 9 K /.+X0XvX",
"5XdXlXxXfX$X] r @ & a  .&.;.;.;.l.k.v.L.L.L.L.Z.C.C.C.R.Z.Z.R.C.R.R.R.T.d.>.D k V B B S B D P 3.2.w.-.@. .c a > j J _ _.}.;X0XcX",
"tXkXlXlXgX$X(.H @ & a n *.*.&.&.p.d.G.G.J.L.R.Z.V.Z.Z.R.Z.A.B.B.B.C.Z.c.j.t.2.2.8.8.8.8.7.7.2.q.<.&.&... .l > 1 N _ }.$XwX0XiXcX",
"dXkXtXmXdX-X(.R q 4 i b c |  .*.@.w.d.G.k.v.v.v.k.c.v.v.B.N.M.M.v.h.h.k.j.l.g.h.j.G.c.K.k.k.t.;.O.O. . .c a 5 5 R /.$X0XhXcXrXlX",
"tXtXaXlXtX3X X(.E J j h a c |  .$.w.p.z.z.u.y.i.p.f.y.y.y.i.y.y.z.y.z.z.i.y.y.y.l.y.h.h.h.i.e.-.@. .c u a j J ( (. X,XyXvXvXiXlX",
"yXtXtXvXkX1X>XoX[.^ J , > a c @.@.0.0.0.$.;.;.;.-.;.;.;.;.&.-.-.-.-.;.;.;.;.-.q.-.-.-.-.;.;.-.&.O.n y = 1 C ] ].#X>XuXyXlXyXyXyX",
"iXiXuXlXkX5XgXsX-X[.( 5 , i M O.#.o.#.#.........=.=.X.O.X.X.X.O.X.O.O.O.O.o.+.+. .X.n X.X.O.X.+.n v t ; 3 W [.-X5XdXtXtXtXtXyXrX",
"pXiXyXyXtXdXzXzXeXoX(.J w j h x u u u u u u l l a a l a a l a a a x l l x l l z l y y u l x l a p h 4 9 T ] #X2XxXxXtXtXtXtXuXiX",
"yXaXyXyXkXlXlXlXgX:X X/._ K 5 , : : : : * * : > : : % % % % % * : : * : : : = * * * % * * * : % : 4 C ) _.XX:XgXlXmXlXtXtXyXrXyX",
"yXtXyXtXtXkXlXlXeX9X3X$X).) w @ @ @ @ O O O O @ @ @ @ o o o o o O O O O O & O O O o o o o o o o @ 9 ) [.$X>XfXhXkXtXkXgXtXeXeXyX",
"uXyXtXtXlXtXgXhXrXhXjX0X6X(.R 0 2 2 6 6 7 6 7 6 3 6 7 7 8 3 7 7 6 6 6 6 8 7 8 8 7 6 6 3 7 7 3 3 q J /.%XfXfXlXeXtXgXtXeXeXeXeXtX",
"tXaXtXtXtXtXtXrXrXhXvXhX4X).(.(./ ^ / ` ` ! ` ` ! ^ ! ' ^ ! ^ ! ! ! ! ! ` ` ` ` ! ~ ! ^ ! ^ ^ / / (. X>XjXBXlXyXtXtXtXtXrXeXtXtX",
"tXtXtXuXeXeXeXrXgXhXcXhXuX4XoX X.X}..X.XXX&XXXXX.XXX.X.XoXoXOX X.X.X.XOXOXoX.X@X XOX}.OXOX6X6XOX6X6X4X5XlXlXvXtXrXtXeXhXhXgXgXeX",
"aXtXtXtXeXeXeXhXfXfXhXhXyXuX8X8X2X<X<X7X<XfX7X7X<X<X9X9X5X8X8X8XuX1X1X1X2X2X1X1X1X,X3X1XtXtXtX5X1X1X5XuXlXyXtXtXgXgXrXeXtXtXhXeX",
"kXlXkXtXeXeXtXhXhXlXrXhXhXjXjXvXcXbXbXbXbXbXbXbXjXcXbXzXmXMXMXmXMXmXbXzXzXzXmXvXlXhXtXmXmXMXmXmXaXaXaXaXlXtXlXhXgXgXtXtXrXtXrXgX",
"rXrXtXtXeXtXtXtXrXrXtXgXgXhXeXeXrXeXhXfXgXfXhXhXfXhXrXlXtXyXrXyXyXrXeXeXtXtXgXrXhXrXrXtXtXaXtXtX5XtXtX5XtXeXeXeXtXtXgXtXtXtXkXrX"
};
