/* XPM */
static char *_7cb8499f69d4484b7551370f4c18c61sVoMAUAwG3ek4Z6b[] = {
/* columns rows colors chars-per-pixel */
"64 64 242 2 ",
"   c #0A0607",
".  c #150305",
"X  c #1A040B",
"o  c #1A0A0D",
"O  c #15080C",
"+  c #0F0713",
"@  c #140B12",
"#  c #190613",
"$  c #161515",
"%  c #11120E",
"&  c #23030C",
"*  c #2D010A",
"=  c #23080D",
"-  c #33000C",
";  c #230212",
":  c #2D0212",
">  c #240B14",
",  c #290B19",
"<  c #370618",
"1  c #261316",
"2  c #39131D",
"3  c #1C1D27",
"4  c #3C0B22",
"5  c #281928",
"6  c #3A1625",
"7  c #391C32",
"8  c #24192B",
"9  c #1F2326",
"0  c #1F2329",
"q  c #222227",
"w  c #23222B",
"e  c #282829",
"r  c #392027",
"t  c #2B2737",
"y  c #362A37",
"u  c #34343D",
"i  c #363539",
"p  c #2E3539",
"a  c #49051B",
"s  c #52051C",
"d  c #560B1D",
"f  c #40121D",
"g  c #62071D",
"h  c #4B0B24",
"j  c #540B23",
"k  c #590826",
"l  c #4C192B",
"z  c #461727",
"x  c #57172B",
"c  c #5A1C32",
"v  c #640522",
"b  c #670927",
"n  c #760C2B",
"m  c #66162E",
"M  c #7C112D",
"N  c #70162F",
"B  c #780D31",
"V  c #641D34",
"C  c #691C35",
"Z  c #7C1432",
"A  c #7B1837",
"S  c #6A0F33",
"D  c #46263A",
"F  c #572537",
"G  c #4C2935",
"H  c #662337",
"J  c #77233C",
"K  c #60202E",
"L  c #48403E",
"P  c #2C3343",
"I  c #393442",
"U  c #342F43",
"Y  c #483747",
"T  c #553649",
"R  c #4A3E53",
"E  c #53364C",
"W  c #792842",
"Q  c #663A4A",
"!  c #7A344B",
"~  c #66374F",
"^  c #484647",
"/  c #494757",
"(  c #574758",
")  c #59595A",
"_  c #564548",
"`  c #664A53",
"'  c #5C5D6D",
"]  c #585569",
"[  c #5C5D73",
"{  c #5A4E61",
"}  c #69586A",
"|  c #68566A",
" . c #65656B",
".. c #696579",
"X. c #746B7C",
"o. c #6D717E",
"O. c #76757C",
"+. c #706C6D",
"@. c #83162F",
"#. c #860B35",
"$. c #980D3A",
"%. c #831334",
"&. c #8A1435",
"*. c #881739",
"=. c #9A1C3C",
"-. c #95173A",
";. c #830B2D",
":. c #A31D3E",
">. c #82263F",
",. c #9B1C41",
"<. c #991841",
"1. c #861D41",
"2. c #A31D45",
"3. c #A81D44",
"4. c #B11C46",
"5. c #832A45",
"6. c #8B2D4C",
"7. c #872946",
"8. c #97284A",
"9. c #95324D",
"0. c #972D52",
"q. c #9B3254",
"w. c #9A3858",
"e. c #873550",
"r. c #AC2A4B",
"t. c #A62448",
"y. c #B32A4E",
"u. c #AC2C52",
"i. c #A52D53",
"p. c #B32C53",
"a. c #B82A55",
"s. c #A53255",
"d. c #AC3459",
"f. c #A73659",
"g. c #B4355B",
"h. c #BD345C",
"j. c #BB3A5D",
"k. c #B73558",
"l. c #A9324E",
"z. c #AB3A62",
"x. c #BC3663",
"c. c #B53C63",
"v. c #BC3C63",
"b. c #B83964",
"n. c #C52B5B",
"m. c #C2355D",
"M. c #C03A5D",
"N. c #C33562",
"B. c #C43C64",
"V. c #CA3B65",
"C. c #C33D6A",
"Z. c #CC3D6A",
"A. c #C93567",
"S. c #D13B69",
"D. c #CC3E70",
"F. c #AA4664",
"G. c #BC4265",
"H. c #BC426A",
"J. c #B54567",
"K. c #B75071",
"L. c #855B69",
"P. c #C34265",
"I. c #C3426A",
"U. c #CB426C",
"Y. c #C94468",
"T. c #D2436E",
"R. c #CA4972",
"E. c #D84A75",
"W. c #D45479",
"Q. c #CE5171",
"!. c #E4547D",
"~. c #6B6D82",
"^. c #746B81",
"/. c #776B83",
"(. c #787688",
"). c #6F7689",
"_. c #867891",
"`. c #E45982",
"'. c #D76083",
"]. c #E96689",
"[. c #DB5786",
"{. c #798497",
"}. c #8A8887",
"|. c #88889C",
" X c #958697",
".X c #9B9C9D",
"XX c #968DA9",
"oX c #9593AB",
"OX c #9A93AE",
"+X c #9896A8",
"@X c #9997B2",
"#X c #8989A3",
"$X c #A59BB7",
"%X c #AD98B4",
"&X c #9DA3B7",
"*X c #AAA6BB",
"=X c #A8A7BB",
"-X c #B4A6BC",
";X c #B1AFAF",
":X c #C2B8B9",
">X c #AAA7C5",
",X c #B4A9C5",
"<X c #AAB3C9",
"1X c #B8B3CC",
"2X c #BDBCDC",
"3X c #BBB7D4",
"4X c #B6AFD1",
"5X c #BEBEE2",
"6X c #BEBFEA",
"7X c #9EAAC2",
"8X c #C3BBDD",
"9X c #CBBADE",
"0X c #C5B7D8",
"qX c #D5BADE",
"wX c #C1A9CB",
"eX c #C6BEE5",
"rX c #CBBDE4",
"tX c #C6BFE9",
"yX c #CBBDEA",
"uX c #CDB6E2",
"iX c #D2BBE4",
"pX c #D1BBEA",
"aX c #D4B6E5",
"sX c #BDC1DC",
"dX c #BDC3E5",
"fX c #BEC3EA",
"gX c #B8C7E4",
"hX c #C4C2DC",
"jX c #CAC1DD",
"kX c #C4C2E4",
"lX c #CAC2E5",
"zX c #C6C2EA",
"xX c #C3C2EA",
"cX c #CBC3EB",
"vX c #CCC9EB",
"bX c #C9CAE9",
"nX c #D1C4E6",
"mX c #D2C3EB",
"MX c #D2CBED",
"NX c #D4C9E5",
"BX c #D2CBF1",
"VX c #CECFEE",
/* pixels */
"eXrXlXlXlXkXkXkXdXxXfXkXfXxXxXzXkXfXfXgXfXbXeX9XyXuXpXpXpXpXyXyXyXxX6X6XyXyXtX6XfXfXzXcXyXcXtXcXfXyXpXaXuXxXfXfXxXxXtXeXeX2X5XtX",
"eXlXlXrXrXzXkXzXfXxXxXxXkX6XtXtXxXkXfXgXgXfXeX9XuXaXaXpXpXpXyXcXyXyXtX6XyXyXyXtXfXxXcXcXcXyXtXBXtXyXaXaXrXdXfXfXxXxXtXeX5XuX5XuX",
"zXrXrXrXrXlXeXcXxXkXxXcXcXpXcXcXlXvXbXkXbXdXkXlXrXyXyXyXmXyXcXcXcX6XtX6XyXpXyXtXtXzXcXmXBXBXtXfXcXpXaXpXrXeXxXxXcXtXtXtXeXtXeXeX",
"eXrXrXrXrXrXrXlXxXzXzXlXmXmXmXmXMXMXbXbXbXbXbXlXmXmXmXcXcXmXBXvXBXBXBXBXpXBXBXyXBXmXmXpXpXcXBXfXBXyXyXpXcXzXzXyXzXtXeXtXtXtXtXeX",
"eXeXyXuXuXrXtXcXyXyXuXuX9XaXaXqXnXnXjXjXhXhXhXjXlXjXbXhXhXkXbXhXkXjXhXlXBXcXmXlXiXqX9XaXyXeX6X6XfXfXxXbXlXpXyXpXtXeXeXeXtXcXcXtX",
"eXrXyXuXrXyXlXlXyXuXqXuXwX,X-X,X-X,X*X*X=X*X*X-X*X*X=X=X=X=X=X=X=X=X=X*X>X,X,X-X,X%X%X-X$X$X$X>X<X3XkXvXlXnXiXpXuXtXeXtXcXcXcXtX",
"rXtXyXuXyXyXrXzXiXnXuX-XXX_./././.X.X.X.+.X././.(.O.^.).o.).o.o.o.o.o.o.O.(.(.O.X./.^.X.^.~.~.).{.&X2XxXmXNXrX9XtXtXtXtXtXcXcXyX",
"rXtXpXyXyXyXtXzXnXnX0XOX^.R U t u u i i u u I I i I I p p p p p u i i i i I i y u u I P P P P P ] ).7XeXNXlXlXeXyXeXtXtXtXcXyXtX",
"rXyXpXpXmXcXzXdX8X3X-X_.( 8 + + % @ O # o > > > # # @ @ @ @ @ @ % @ % O O O o o % O + @ @ + + # y ..oX,XhX8XhXlXtXuXtXtXeXtXeXeX",
"zXyXpXpXmXlXxX2X1XOX_.| T 4 ; ; & o & & * * : & < : ; ; ; & X X = = = & & & & & & & & = ; # ; , 7 ( ..|.=X1XjXlXeX5XzXtXeXtXeXrX",
"zXrXyXaXpXvXvX2X+X~./ Y c k k j d d d d s s s j j s s s a a a a h d d d d s a s s a a a h k k k k Y Y ] (.=XhXvXcXzXlXrXtXtXeXtX",
"eXlXyXpXlXcXrX>X(./ e 6 k B %.#.A Z N M M Z Z Z Z B B B B M Z Z A A @.*.%.@.M M n M M n B A #.#.B h 5 p ]  X1XhXlXjXeXeXcXcXeXeX",
"eXrXtXpX8X4X$X#X} u 1 < v #.:.:.=.=.=.=.=.=.,.,.,.,.<.<.<.<.<.$.:.:.3.:.:.=.=.=.-.=.=.=.=.:.$.$.B k : 5 Y X.+X>X1X8XlXlXcXtXrXrX",
"eXrXmXrX4XOX(.] Y 6 2 s n &.$.:.t.r.l.r.p.p.p.p.u.u.u.u.4.y.y.a.y.p.y.y.y.r.r.r.r.r.l.y.y.:.=.$.#.b k h D _ } }.=X0XvXvXcXeXeXcX",
"zXrXMX8X>X).R U 6 l b n @.@.=.:.r.y.k.k.h.M.m.N.N.x.x.x.x.h.n.n.n.n.n.n.n.k.k.k.k.j.k.k.k.r.t.-.#.#.1.B k z y ( |.-X9XlXlXeXzXlX",
"eXrXMX8X@X[ w + < k @.-.-.=.:.3.y.k.M.B.V.V.U.Z.U.Z.C.x.x.h.h.n.n.n.n.V.m.B.P.G.G.j.j.k.y.r.8.-.-.$.$.#.g < 1 Y ..+X1X2XeXeXeXeX",
"cXlXMX8XOX[ 3 + < k *.<.:.3.r.l.k.M.P.P.P.Y.Y.Q.I.R.Z.V.d.0.>.7.i.N.A.V.U.V.Y.H.P.j.l.>.J J 9.9.8.2.$.;.n s a z ~ ^._.7X4X6XyXtX",
"eXeXMX8XOX .8 + < S -.2.t.y.y.k.M.M.G.G.P.Y.P.Y.Z.U.Z.x.8.C x x 1.p.S.D.U.U.Y.I.P.k.>.K f K >.l.i.,.$.;.n b v x D Y ] ).>XuXyXtX",
"rXkXMX8X@X[ 8 # < b $.4.y.m.M.M.j.G.G.G.P.B.M.B.N.N.j.f.W G 2 6 H 0.b.R.I.I.C.C.j.9.K r 1 x >.w.s.t.#.M n #.%.m , , P ~.@XhXcXtX",
"rXkXvX0XoX[ 8 # < n $.4.y.M.M.M.G.G.G.G.v.I.v.v.h.d.q.e.! _ ^ ^ ~ ! 0.f.c.H.b.z.9.J Q L L _ Q ! 6.7.*.&.$.:.*.b < # 3 [ oX3XMXuX",
"rXeXzX3XOX[ 8 + < b $.4.p.j.B.I.R.H.D.b.v.b.b.v.k.7.H H ` L.}.}.} Q V W w.z.w.W K H ) }.}.O.` G V A 8.t.t.3.*.v : X 3 ' XXsXNXjX",
"tXzXzX2XOX[ t # 4 v #.:.p.v.I.R.H.H.b.b.x.x.b.v.f.H f f ` }.:X;X_.G < x e.z.e.c 1 i +..XsX.X) e 2 C i.m.a.2.%.x < # w ' XX0XNX8X",
"rXeXtX3X$X).R 7 z k b %.8.k.b.v.H.H.b.b.x.A.D.b.f.H 1 1 L }.;X;X+.e o z W z.e.l % e ) .X;X}.^ $ > V u.V.m.t.A x : # w ' +X0XVXjX",
"tXzXtX6X4X_.^.| D x s v *.t.u.b.v.I.D.b.A.C.D.R.l.K 1 % e ) O.+.^ %   6 7.b.6.z + $ i +.O.) p % = V s.N.h.t.A b : X 0 } .X1XvXlX",
"tXzXvXxX2X4X$X_.| t , < b 1.2.a.b.b.C.D.A.D.D.D.d.H 1 @ % 9 p e $   O l 6.d.0.l O O $ t p q @   , F i.N.a.2.%.s : # w ' +X3XNXhX",
"eXrXvXbXzXhX1X%XX.^ e 6 k S 1.2.z.b.b.A.Z.D.D.D.c.W z >     %       = F 9.b.w.C 1 o     %       4 A d.x.a.2.%.k ; # e ' +XhXNXjX",
"eXeXvXxXbXNXjX1XoXo./ i z k S B 8.d.b.x.C.U.U.Z.c.9.H z =         2 x >.s.x.d.7.x 2 &     . = 4 C 6.g.x.a.2.%.k - O w } OX3XVXjX",
"lXzXzXxXjXnXjX0X<X@X{.[ Y 4 h k 1.8.i.b.v.Z.U.I.j.k.9.J l O   . 1 H 5.l.j.N.x.d.8.J f .   X h W 0.d.v.x.p.2.&.v - # w ' OX8XvXlX",
"zXeXhXeX8XjXjX8X2X2X>X{.{ 7 4 4 B 1.8.p.x.N.B.B.P.B.v.s.J 2 X > x e.d.v.V.N.V.M.h.9.V 2 X 4 J i.b.C.C.x.p.2.&.v * X w ' OX8XvXcX",
"eXeXrXjXrXkXkXeXlXMXkX$X^.R D 6 h S A 8.g.h.j.B.V.U.Z.x.s.H l x J f.G.Y.P.V.V.Y.Z.g.>.x z c 0.x.C.C.B.x.p.2.&.v - X w ' @X8XMXcX",
"eXcXrXlXjX8X8XdXvXMXlX1XOX_.| E 4 4 k #.t.p.h.N.Z.U.V.V.g.0.W 7.w.G.I.I.P.V.V.V.B.j.s.7.J e.f.v.I.U.B.c.p.2.*.v - X 0 ' OX8XBXtX",
"eXrXrX9XlXeXeXkXkXxXrXrX0X*X_.| t , < S *.t.a.m.V.B.P.B.V.c.z.z.f.G.G.G.G.M.V.P.G.v.k.d.f.f.F.H.I.I.v.j.y.t.&.v - X 8 ' @X2XMXrX",
"eXeXeXuXtX5X5X5XtXtXpXmXmXjX*X(.R e 2 x B -.2.u.h.N.V.B.x.g.b.b.z.G.H.c.I.I.B.P.v.v.d.f.f.f.c.H.H.I.C.x.y.:.@.g * o q ' OX8XBXrX",
"eXeXeXuXuXuXtXeXtXyXcXBXmXlX,XXXX.| D l j b *.t.k.M.M.j.s.0.5.7.0.z.v.H.I.I.I.U.Z.b.q.5.W ! w.J.H.R.V.h.y.:.@.x * . q ' OX2XBXrX",
"zXeXuXtXeXeXtXtXyXyXcXzXbXlX3X1X$X X} G , a b -.2.a.j.d.0.C x z J 0.b.C.R.U.R.E.D.d.W l 6 c 6.z.B.Y.A.h.y.:.@.d * . e ' OX8XBXeX",
"kXeXtXeXuXtXtXtXtXcXzXdXdXkXkXxX0X-X_._ 5 , j B -.t.u.s.5.x 2 2 m 7.s.z.c.J.J.v.v.0.V 4 , z W z.Z.Z.V.h.l.:.@.g * o 9  .OX8XBXtX",
"eXeXrXtXtXtXtXtXtXzXfX6XfXfXzXmXNX0X%X+._ G l x N *.8.8.7.N x l K C J >.W e.! e.e.W F z z c 8.z.V.S.V.n.y.:.@.g - . q [ OX2XBXyX",
"eXeXcXcXcXtXtXeXtXfX6X6XxXxXtXBXnXqXwX%X_.| T 4 a k A 8.8.6.5.W K l f f 6 6 r r 7 r G V W 8.u.A.V.S.V.m.y.:.@.g * . q ' OX2XBXrX",
"eXcXcXcXcXzX6X6X6XfX6X6XyXyXyXpXqX9XqXwX,X X( t , 4 S 7.8.d.s.9.K 2 = o o . o % @ 6 F W i.b.A.A.S.S.A.m.a.3.@.g * . q ' OX2XBXtX",
"eXcXcXBXcXkX6X6XfXfXfXtXyXyXpXpXnX9XnXNX0X%X/.R U 7 x B 1.s.f.q.>.l 1 $ 1 1 1 1 , 7 W 0.b.D.Z.S.S.S.S.m.y.3.&.g - . 5 [ @X2XBXeX",
"eXlXlXcXlXxXdXsXxXxXvXcXcXyXyXpXaXrXcXcXlX1XoX(.| E l h k 1.t.t.7.J K K K K H K K J 8.k.Z.D.S.Z.C.V.N.h.y.t.*.g - X 9  .+X2XBXeX",
"eXeXlXlXlXkX5X5XxXxXbXxXcXyXyXyXpXtXeXeXkXhX1X*X X| U 4 h b &.=.l.l.w.w.9.9.9.9.9.9.d.B.S.Z.Z.C.C.N.N.h.y.:.*.g - . 9 ' OX0XBXeX",
"eXeXrXlXkX8X5X2XkXxXcXcXcXtXyXyXyXtXeXdXkXlXlXjX,X_.( y h k n &.:.l.P.P.P.P.M.M.m.m.m.S.Z.U.C.I.B.N.x.j.y.2.&.v - X q ' OX8XBXeX",
"lXrXlX8X9X8X8XkXeXvXcXvXBXtXyXyXyXeXtXfXfXlXmXnX0X@X/.] Y z s g @.:.M.M.M.Y.Y.V.N.V.N.V.Z.I.B.C.H.H.v.c.u.2.&.k - X q ' OX8XMXeX",
"zXrXrX9X9X8XeX8X8XjXeXrXzXzXxXxXyX6XfXfXdXzXcXmXrX0X$X|.+.G < a g @.3.a.m.Y.P.M.B.M.v.G.G.P.v.G.H.I.v.v.g.2.#.v - X 9 ' OX2XcXtX",
"kXuXrX9X9XlXjXlXrX8X8XeXzXvXBXxXfXtXfXfXxXzXcXpXrXlXkX<X{./ r = a N &.t.h.B.Y.Y.V.B.j.G.c.J.J.J.H.I.I.H.p.2.*.v - . 9 ' OXuXBXeX",
"eXrXuXuXrXiXlXlXkX8X8X8XtXzXxXxXfXfXxXxXyXtXrXeXzXvXVXsX&X{.^ y z z b 8.k.Q.E.T.V.M.M.B.v.G.v.G.G.I.I.v.p.2.&.g - X 9 ' OX8XBXeX",
"tXrXrXrXiXiXnXcXrXrX8X8X2XeXxXfXfXfXzXzXyXtXyXtXkXbXbXsX<X.X{. .G 6 a J d.W.`.W.P.V.P.B.P.B.N.N.v.C.G.v.p.3.&.g - X 3 ' OX8XBXeX",
"eXrXrXtXpXcXmXmXcXlXhX8X2X5X6XkXxXxXvXcXcXtX6X2X5X5XeX8X8X0X-X|.[ t 8 F z.[.[.[.T.S.S.S.Z.V.N.N.N.V.v.G.k.2.&.v - X 9 ' OX8XBXeX",
"eXtXtXyXcXpXpXmXrXrX8X8X8X2X5XdXxXzXxXcXyXtXeXeX5X8XeX8XjXNXhX=X)./ U T w.K.R.W.T.E.T.T.V.V.M.j.h.B.v.v.a.3.&.v - X 9 ' OX8XBXtX",
"tXtXtXtXtXtXyXyXiXrX9X9X8X8XeXhXfXzXtXtXyXyXeXlXlX8X8X9XjXNXnX4XOX).[ { ~ ! w.b.E.!.E.T.I.G.j.j.v.B.P.x.a.t.&.v - . $ ' oX8XBXrX",
"zXtXtXfX6XtXyXaXiXrX9XrX8XeXeXkXtXtXtXtXtXtXtXyXvXlXlX9XrXnXrXeX3X7X{.~.R 7 C z.E.`.!.U.P.G.c.G.v.P.P.M.a.r.&.v - . w ' OX2XMXrX",
"tXzX6XfX6XtXtXuXrX9X9XrXlXjXlXzXtXtXeXeXeXrXrXmXNXlXlX9X9XrXyXyXfXgX<X{./ t D e.U.[.R.R.Q.J.P.P.G.B.B.k.r.,.M b 2 1 P ~.@X8XcXrX",
"tXtXtXfX6X6XtXrXrXrXrX9XrXlXlXlXeXtXtXuXeXrXcXlXlXlXlXrXrXrXyXpXvXbX2X@X~.] E ~ w.w.J.R.W.W.W.W.Q.P.k.i.*.N k z D R [ _.,XeXcXtX",
"rXzXeXkXtXtXtXeXyXuXrXzXlXrXeXlXeXeXtXeXeXeXkXlXtXlXlXlXlXeXrXyXBXfXgX<X@X(.~.~ c T e.K.'.].].!.Q.B.u.*.m a < D { _.oX>X3XeXvXrX",
"lXeXzXzXtXtXeXeXrXrXrXeXrXeXeXeXrXrXtXtXtXeXzXrXtXyXrXeXlXrXeXyXfXfXgXgX6X4X_.| y z ! K.'.].].!.Q.k.8.N j < 5 Y /.$X3XuXyXzXzXzX",
"eXeXeXzXzXrXeXlXzXeXzXrXeXzXeXeXeXeXkXzXrXzXkXeXrXrXrXeXeXeXtXtXfXxXfXBXBXeX@X/./ T Q L.F.F.K.F.w.>.S x z y Y ' XX4XcXBXyXrXtXrX",
"eXzXrXeXeXtXeXtXeXeXeXeXkXrXeXeXeXzXrXeXeXeXrXeXeXeXeXkXeXeXkXeXBXxXBXyXzXyX4XOX(.+.` ~ T H H K x h 4 h D ( ^.|.>X4XBXcXtXtXtXlX",
"rXzXrXzXeXlXeXeXzXzXeXzXeXlXlXeXeXrXzXeXeXeXeXzXtXzXeXkXdX5XdXdXfXxXcXBXiXrX9X4X=X|.[ ^ 5 # > > > X ; 5 R (.&X1X5XeXtXcXtXeXeXrX",
"kXeXtXeXeXeXeXlXrXeXeXrXtXeXeXeXzXeXrXeXrXzXkXrXrXeXeXkXkXkXhXkXtXtXcXpXpXiXiXnXsX&X{./ t 3 q w w w 8 U ..oX3XkXyXeXeXeXrXeXeXzX",
"rXeXrXzXeXlXeXtXeXzXeXeXeXeXeXzXeXeXeXeXeXkXeXeXrXeXeXzXzXjXrXkXrXuXyXpXaXaXrXvXhXsX.X).[ ) ' ' ' ] ] .._.4X6XcXvXlXeXzXcXtXrXzX",
"eXzXeXeXeXeXeXeXeXrXeXzXrXzXeXrXzXrXlXeXrXrXzXzXcXrXrXrXiXqXiXqXrX9X9XuXuXyXlXlXbXsX<X&X@X+X+X+XOXOXXX$X>X4X6XzXcXzXeXrXtXrXeXzX",
"lXeXeXlXlXeXzXrXkXrXkXrXeXeXzXeXzXeXeXzXzXeXeXrXkXeXzXrXiXnXqXqXaXqXuXuXuXuXeXkXgXgXgXsXsXsXhXhX0X0X0X0XeX5XtXzXeXtXrXzXrXeXeXeX",
"eXeXeXeXeXeXeXeXeXzXeXrXzXzXrXeXeXrXkXrXeXeXkXrXzXzXzXrXnXiXaXqXqX9X0XuXeXeXkXdXgXgXgXbXbXVXVXVXMXMXpXpXcXzXtXtXeXtXtXeXeXlXzXrX"
};
