/* XPM */
static char *_4da1be6f1b14548ceec19f6ac013120x53YkC8uCcyErN9n[] = {
/* columns rows colors chars-per-pixel */
"64 64 244 2 ",
"   c #0C0B0B",
".  c #080406",
"X  c #140A0D",
"o  c #18060C",
"O  c #0F0A13",
"+  c #130A13",
"@  c #150715",
"#  c #171618",
"$  c #0B1714",
"%  c #26010D",
"&  c #2B010C",
"*  c #220A0F",
"=  c #260211",
"-  c #2C0112",
";  c #2A0B19",
":  c #36091A",
">  c #2B1219",
",  c #3C131D",
"<  c #32131B",
"1  c #31000B",
"2  c #1E1223",
"3  c #1C0F20",
"4  c #3B0D23",
"5  c #2A1924",
"6  c #381827",
"7  c #3D1D31",
"8  c #1F2823",
"9  c #262628",
"0  c #2C2D3B",
"q  c #282938",
"w  c #342E3B",
"e  c #372836",
"r  c #2D313D",
"t  c #293335",
"y  c #31313C",
"u  c #333536",
"i  c #3A242C",
"p  c #4D041B",
"a  c #48081C",
"s  c #54041B",
"d  c #54051B",
"f  c #43121E",
"g  c #470D23",
"h  c #570825",
"j  c #431323",
"k  c #491728",
"l  c #551A2B",
"z  c #581B32",
"x  c #481B31",
"c  c #6A0C2A",
"v  c #7C0C2B",
"b  c #730C2A",
"n  c #67132D",
"m  c #7D122D",
"M  c #73132E",
"N  c #7A0D32",
"B  c #631C33",
"V  c #671D37",
"C  c #7C1332",
"Z  c #781A38",
"A  c #472737",
"S  c #552434",
"D  c #682438",
"F  c #74243B",
"G  c #7B243C",
"H  c #2D2E40",
"J  c #393546",
"K  c #2E3341",
"L  c #463747",
"P  c #573548",
"I  c #4F364D",
"U  c #782A44",
"Y  c #6E3249",
"T  c #3D494C",
"R  c #4B4555",
"E  c #554656",
"W  c #515253",
"Q  c #694C58",
"!  c #585767",
"~  c #5A556A",
"^  c #675867",
"/  c #67596D",
"(  c #5E6475",
")  c #5F6563",
"_  c #646579",
"`  c #6B657B",
"'  c #686878",
"]  c #73687A",
"[  c #6C696F",
"{  c #59625F",
"}  c #810B2D",
"|  c #89092E",
" . c #82132D",
".. c #870D33",
"X. c #8C1336",
"o. c #881639",
"O. c #96153A",
"+. c #9A153C",
"@. c #941B3D",
"#. c #9A1B3D",
"$. c #971837",
"%. c #980F39",
"&. c #87263E",
"*. c #97223F",
"=. c #A2153F",
"-. c #9B1B41",
";. c #971B41",
":. c #8C1A43",
">. c #A51B44",
",. c #B31D48",
"<. c #882946",
"1. c #982848",
"2. c #88304B",
"3. c #94324E",
"4. c #9C2C54",
"5. c #9C3455",
"6. c #9A3458",
"7. c #893A57",
"8. c #AC254C",
"9. c #A42B4D",
"0. c #A72549",
"q. c #B2244D",
"w. c #B5274D",
"e. c #A32C51",
"r. c #AA2C54",
"t. c #B72B55",
"y. c #AB3453",
"u. c #AD355B",
"i. c #AD3B5B",
"p. c #A53557",
"a. c #B23355",
"s. c #B4345B",
"d. c #BB345C",
"f. c #B33A5D",
"g. c #BB3C5E",
"h. c #BD3256",
"j. c #A6314E",
"k. c #B53D62",
"l. c #BC3C63",
"z. c #BD3C6A",
"x. c #B83663",
"c. c #A73E61",
"v. c #C52C58",
"b. c #C1335C",
"n. c #C33B5E",
"m. c #C6335A",
"M. c #C43564",
"N. c #C33C65",
"B. c #CA3B65",
"V. c #C53C69",
"C. c #CB3C6A",
"Z. c #C93666",
"A. c #D13868",
"S. c #87415F",
"D. c #B9405E",
"F. c #944865",
"G. c #A84667",
"H. c #BC4164",
"J. c #BC426A",
"K. c #B64468",
"L. c #BC4A74",
"P. c #C34165",
"I. c #C5426B",
"U. c #CA436B",
"Y. c #C54669",
"T. c #D2426E",
"R. c #C84773",
"E. c #D64874",
"W. c #D7537C",
"Q. c #C75479",
"!. c #7D827E",
"~. c #6B6881",
"^. c #726E83",
"/. c #777789",
"(. c #7D7D93",
"). c #6B7083",
"_. c #847D97",
"`. c #D95883",
"'. c #E85A86",
"]. c #D36185",
"[. c #E76690",
"{. c #7C8296",
"}. c #87869A",
"|. c #929193",
" X c #938BA6",
".X c #9896AB",
"XX c #9D9BB4",
"oX c #9B9BB7",
"OX c #8E92A6",
"+X c #A39BB4",
"@X c #A29BBB",
"#X c #A798B6",
"$X c #A39AAF",
"%X c #99A3B6",
"&X c #9BA4A1",
"*X c #A5A2A6",
"=X c #A4A3BA",
"-X c #B5B9B8",
";X c #C1BBBF",
":X c #AA9DC2",
">X c #ABA9C4",
",X c #B4ABC9",
"<X c #B5B3CD",
"1X c #B6B7CC",
"2X c #BCBBD5",
"3X c #BCBCDB",
"4X c #BBB5D6",
"5X c #B0B2CD",
"6X c #BDBEE4",
"7X c #C3BDD5",
"8X c #C3BCDC",
"9X c #C8B8DA",
"0X c #C0ABD6",
"qX c #CCB5E3",
"wX c #C6BEE5",
"eX c #CABDE4",
"rX c #C6BFE9",
"tX c #CBBDEA",
"yX c #CDB6E8",
"uX c #D3BCEC",
"iX c #D7BAE9",
"pX c #CEBEF0",
"aX c #BAC3DA",
"sX c #BDC2E5",
"dX c #BDC4E9",
"fX c #BFC9E9",
"gX c #BED7ED",
"hX c #C4C2DD",
"jX c #CAC3DC",
"kX c #C5C0D7",
"lX c #C4C1E4",
"zX c #CAC2E5",
"xX c #CCCBE5",
"cX c #C5C2E9",
"vX c #CBC3EB",
"bX c #CCCAEB",
"nX c #C5C9E8",
"mX c #D3CBE6",
"MX c #D3CAEC",
"NX c #D7C5EA",
"BX c #C8D2EA",
"VX c #D7D1E9",
"CX c #CAC4F1",
"ZX c #D5C8F3",
/* pixels */
"lXlXhXlXcXcXdXdXdXdXrXuXiXiXiXMXbXbXxXmXmXNXVXNXVXVXmXmXbXMXZXZXpXZXpXpXZXZXZXZXiXNXNXNXmXmXgXgXgXgXnXNXiXiXpXpXpXpXwXwXrXtXrXtX",
"hXlXlXlXlXcXcXdXdXdXrXiXiXqXqXwXsX3X2X2X7X7XjX9X7X7X7X9XwXwXrXwXwXqX4X6XrXrXwX6X9X0X9X7XkXkXaXaXaXaX3X9XqXyXuXpXrXyXwXwX6XrXtXCX",
"zX8XlXlXrXvXcXsXdXsXcXiXiXqX,X:X%XoXoXoX.X+X+X+X$X$X$XXXoX@X@XoXoX@X@XoXoX:XoX@X#X#X$X$X.X%X%X%X.XoXXX#X:X0XeXvXrXtXrXrXtXrXrXvX",
"wXwXwXlXvXvXwXwX3X6XvXZXiX4X X/.~.( ( ~.' ' ] ] ` ` ' ] ` ` ~.~.~.~.~.~.~.` ~.] ] ` ] [ [ [ ( ' ( _ _ ~._.#X3XvXCXvXrXvXrXrXrXrX",
"lX6XlXrXuXeXeXeX3XwXzXvX9X+X^.R H H H K K r r y u w w u w w u K K H 0 r H r w w e e e u u q t t H q q H ~ _.5XjXNXxXlXwXcXrXvXrX",
"sXwXwXtXzXuXeXeX8X8X8X3X>X}.~ q O @ O $ $ O + O @ @ @ + + + +   O + + X O O + + o o X X X X X X O O @ 2 J ` .X1XhXhXjXeXrXzXrXwX",
"wXwXwXeXeXNXzXvXlX2X>XoX(./ P 4 - - = = = = % - - - 1 & & & & * = % % % % % % & 1 1 & & & & 1 1 - & - : A I /.OX%X1XjXxXzXrXeX8X",
"eXeXtXeXeXzXxXnXnX<XOX~.! I z h h h a h p p p h d h d c d d d d a d d p p p p d d d d d d d d d s s h g x A I ~ {.+XkXMXxXzX8X8X",
"iXuXrXwXhXsXfXfXkX=X{.T 9 4 h b | | } v v v m N  . . . . . . . . . .m m M M v v v } v v v v }  .| ......c g 5 q ! |.1XjXmXeX8X8X",
"iXuXeXrXlXsXaX5X=XOX! y ; : h N %.%.+.%.%.O.@.#.*.*.*.$.$.$.$.$.*.0.*.*.o.o.@.O.+.+.$.$.@.+.+.+.>.-.:...n a : 5 I ^..X>X4X7X8X8X",
"uXtXtXvXlX3X>XOX{.) L 7 : s b ..$.=.,.,.,.q.q.r.8.j.*.j.0.>.w.w.w.w.w.j.4.9.8.8.q.q.q.r.8.8.w.w.,.>.;.X.N h g 4 A E ] _.=X1X8XmX",
"vXtXNXNXeX1X.X~.T u e z c c N ..$.#.w.b.m.b.h.a.a.y.D.j.a.w.w.w.h.b.b.h.x.c.u.s.x.g.s.s.s.s.d.h.t.q.>.X...N M n A A L ! }.=X7XmX",
"vXrXeXqX4X:X/.I q ; , n C o.o.X.$.*.y.i.g.n.n.n.D.D.D.i.a.b.b.b.g.g.l.f.z.K.L.z.P.P.J.J.J.H.J.N.b.q.-.O.X.:.o.C g : 3 K ` =XkXVX",
"ZXtX8X,XoX_./ I 4 : s M o.:.*.#.*.*.&.*.3.a.B.U.U.P.D.g.n.B.b.a.9.1.3.p.k.V.V.V.V.I.I.I.I.U.U.P.x.a.9.-.;.-.:...h = @ q _ =XjXVX",
"CXrX,X X~.E I z h c b m $.*.0.8.1.&.n l M 1.b.A.C.V.H.g.B.C.s.j.F B B U u.V.C.V.V.V.C.C.C.C.P.l.f.u.r.e.0.-.;...h = O q ' +XjXVX",
"MXrX>X/.R q 4 z Z C o.o.$.0.j.h.j.&.f : f G r.B.B.V.l.l.C.I.i.1.l , , D 6.M.V.z.x.z.M.V.B.P.l.z.k.f.u.s.r.>.;.N h - @ 0 ' +XkXVX",
"ZXlX%X` H @ - h ..>.>.;.+.>.j.j.3.D S i l F 3.a.u.x.M.x.x.u.3.Y S A A D 2.e.u.g.x.z.Z.Z.B.B.H.D.g.g.D.g.t.,.-.| s - @ H ~.oX8XMX",
"MXaXXX_ q O - h ..-.>.>.0.1.&.&.G Q ) Q ) Y G &.4.u.z.x.6.<.G Q ) ) ) Q Y U <.p.u.l.C.N.B.l.D.D.g.k.H.H.v.w.>.| d - O H ( .X8XeX",
"xX3XXX_ H O - h ..;.,.w.0.1.n f A ) |.*X|.^ A S Z 4.x.6.U z A W !.*X&X[ I x l &.k.z.P.N.H.D.D.n.n.P.Y.U.m.w.=.| h - @ H _ XX2XNX",
"xX2XXX_ q @ = h v O.,.h.y.&.l * 9 ) *X;X*X) u > z 2.z.6.D > 5 W |.;X-X] u # f F i.J.Y.J.D.D.D.D.n.U.B.m.v.,.O.} h : 2 J ` +X4XzX",
"xX1X%X( 0 O - h  .+.w.v.D.&.f X # W |.*X|.W 9 X k <.x.6.S * $ T !.&X&X) 8 $ < G i.H.J.H.D.D.D.Y.n.n.n.b.w.$.m c z A J ~ _.:X4XzX",
"xXaX%X' 0 O - s X.#.w.v.j.&.f o   t W [ Q u $   g <.x.4.B *   8 W ) { u $   > D i.H.Y.H.D.D.n.n.n.n.h.8.@.b d f x E ~._.#X4X3XvX",
"BXaXXX( r @ - c X.>.w.y.D.F f * . $ 8 q 8 $   o l :.a.4.B 1 X   8 8 8 $     , F a.D.n.D.g.D.H.l.D.a.0.$.M a < 5 R ~..X>X9X8XlXvX",
"jXaX%X' 0 @ - h X.0.w.j.D.&.l < o . . O   . X - B 3.t.j.F f o . . . .     * k <.u.P.Y.n.g.n.g.x.a.0.$.o.h , 9 u ~  X<XeXeXxXlXvX",
"xXaX&X' w + & d X.>.q.a.i.3.&.B f % . .   o j z <.4.a.a.<.D j - . . . o : l F 4.s.N.B.P.n.n.x.t.4.:.b h k A R ! (.@X8XxXvXeXvXrX",
"VXkX$X' w + & d } -.8.s.D.D.p.2.F k o . X 6 F 3.5.f.d.d.p.2.F l o . . : B <.4.s.M.N.B.l.l.d.t.r.:.b g 4 7 E ).}.@X5X8XxXrXeXwXwX",
"NX7X$X` w X 1 d v @.0.s.P.P.n.g.3.D : o < B 3.k.P.N.g.l.z.k.6.U f o * l <.s.M.Z.N.V.I.B.g.u.>.;.N c : ; J '  X<X6XhXlXeXqX6XwX3X",
"NX9X$X] w X & d b @.0.a.D.Y.U.U.p.2.l f l U i.B.U.P.k.l.I.V.k.1.B j k U r.Z.C.C.C.Z.N.b.t.e.:.N h x 7 J ! }.,XrXvXvXwXeX6XqX6XwX",
"NX9X#X` w + & p v $.0.y.D.n.U.Y.D.p.&.F &.5.g.Y.P.J.K.K.V.I.z.p.<.F U 4.x.z.V.R.I.N.b.w.0.X.n h g I E ~.(.:X4XCXbXvXwXwXwXwX6XqX",
"MX8XoX` 0 + % d v $.0.y.D.n.Y.Y.U.g.y.9.p.a.N.B.N.J.K.G.J.z.z.k.x.r.u.u.x.z.I.C.B.n.t.q.$.b p - 6 I ^. X,X6X6XrXvXtXrXwXwXwX6XrX",
"MX8XoX` w + % d v $.>.j.D.D.Y.P.P.g.y.y.y.h.B.N.V.z.K.z.K.z.J.k.x.u.u.x.z.K.z.V.M.s.1.@.v h , < y ~  X6XnXCXCXpXrXrXrXwXwXwXrXeX",
"MX3XXX_ 0 X % d v $.0.y.D.n.Y.Y.H.p.1.&.1.j.g.B.I.R.z.L.L.J.V.f.r.:.3.5.i.G.K.x.h.r.o.b c k A L / /.>XwXCXCXrXrXrXtXtXwXwXeXeXwX",
"vX6XoX` 0 + & h m @.0.h.l.C.C.I.D.&.D l D <.h.B.E.C.V.V.C.R.H.3.F z l &.5.D.f.f.r.:.c a < i W /. X=X1XaXnXvXvXtXtXrXtXwXwXtXwXtX",
"vX4XoX` 0 + - d  .+.q.t.B.C.C.V.y.G f 1 f F p.n.V.V.z.z.z.H.G.U k : f D 3.i.s.8.-.C h ; 5 J ] .X1X7XhXhX8XwXwXtXtXwXeXwXwXwXlXwX",
"bX3XoX` 0 @ = d } #.q.d.N.C.C.V.G.G l < f D &.F.6.6.4.6.6.6.2.D k f f V 3.p.9.;.C n j 6 w ! }.,XxXbXxXlXzXzXeXeXeXrXeXwXrXrXtXrX",
"ZX3XoX` w + = d } +.q.d.N.C.C.V.y.3.F B l B S B V V V V V D B S B D &.@.9.e.o.c p j A R _ (.XX4XxXbXxXnXvXzXeXuXeXwXtXwXzXlXeXrX",
"MX8XXX` 0 + - d C -.8.t.M.V.V.z.g.k.p.2.G l , > 4 - ; ; > > , l Z 4.t.w.,.-.M g ; 5 I ]  X:X,X4XwXcXvXnXvXxXeXjXeXeXeXwXeXrXrXeX",
"NX8XoX` 0 + - p C O.8.t.x.V.V.z.J.P.z.f.2.S < X @ @ + +     > l 1.t.v.w.>.X.c : 5 w /  X,XqXwXwXwXvXCXbXbXlXeXzXeXeXrXzXwXlXzXeX",
"NXeX#X` w O - g N ;.q.t.M.Z.M.z.z.V.U.V.5.U l 6 , , f f 6 < k D 4.a.q.-.N c l x J ! (.>XeXvXCXtXwXrXpXtXvXzXeXjX8XeXrXrXrXrXwXeX",
"NX9X#X` 0 + % p ..;.q.t.M.Z.M.z.V.C.C.I.D.6.2.U D U Z Z F F F <.-.>.-.b s a A E ] }.oX4XlXMXvXrXyXtXyXwXyXeXqXeXeX8XeXwXzXwXwXzX",
"NXqX#X` e   = p C 1.0.d.Z.Z.M.M.z.V.I.I.P.J.k.f.i.s.t.u.u.p.p.4.1.o.b h : 5 L ] .X,XhXwXcXCXvXtXiXyXqX9X9XqXeXeXzXeXeXzXeXwXzXwX",
"NX9X#X` q X = p M :.r.t.Z.Z.V.M.x.M.C.C.U.Y.Y.J.N.N.M.Z.B.k.i.4.o.b h 4 6 w ~ }.,XjXbXcXCXCXvXvXyXyXqXqXqX9XeXlXwXzXlXrXrXeXwXlX",
"NX9X$X` r O = p C @.e.s.z.V.z.z.x.l.V.N.U.Y.Y.Y.C.C.C.B.M.h.9.@.c p , A R / {.%X3XnXBXnXCXCXtXvXuXyXyXqXqXzXlXfXlXxXwXrXlXeXrXrX",
"NXiX+X] 0 + * d m 1.e.a.k.K.J.J.N.l.N.l.l.l.H.H.N.N.N.M.t.8.;.n a - 5 R /.OX>X5X3XsXcXdXcXCXtXvXtXyXyXqXeXzXcXnXlXlXlXwXwXrXrXzX",
"MX8XoX` 0 + % p M *.4.i.H.K.K.J.l.H.k.g.l.g.k.H.l.l.z.d.8.1.M c : ; q ( OX<XlXlX6X6X6X6XrXrXwXvXtXuXqXeXrXzXcXfXcXcXcXlXwXlXrXzX",
"MX8XoX` r + % p v @.0.f.J.J.J.J.J.J.l.z.k.g.g.H.Y.R.R.z.9.m h g 7 L ! (.>XvXZXCX6XwXrXrXrX6XrXcXrXrXrXzXrXlXdXdXcXcXrXlXrXeXeXrX",
"MX8XXX` r O & p v $.0.t.N.B.P.V.N.P.P.P.H.g.H.H.Q.`.`.J.<.d , 7 R ] }.>X3XbXZXvXyXyXyXtXrXcXlXlXlXlXzXlXcXcXdXrXlXcXwXrXrXlXwXlX",
"MX8X+X' 0   % p } $.q.v.Z.C.B.C.N.P.P.P.P.D.H.K.Q.`.`.G.Y < > J '  X-X4XlXcXCXuXuXuXpXtXrXrXsX6XsXhXsXlXlXdXwX6XwXrXrXzXeXeXrXrX",
"MX9X+X' r O % d v %.,.v.A.A.A.A.B.P.U.P.P.Y.Y.R.Q.L.L.F.Y e 0 ! }.>XxXxXvXvXyXZXiXiXtXtXeXwXhXzXhXlXlXlXlXlXwXwXwXwXrXrXeXrXrXrX",
"ZXeX@X` q   % d | +.w.v.A.A.Z.Z.b.x.N.P.U.E.W.R.L.G.F.Q Q E ~ /.%X2XbXzXvXtXyXuXpXpXuXyXeXwXeX8XlXlXlXlXlXwXwXwXwXrXrXwXwXwXzXrX",
"ZXwX@X` r   * d X.>.w.v.A.B.M.N.l.g.N.B.T.W.'.W.G.U z A Q /.OX%X1XhXlXeXeXeXeXtXZXCXrXrXwXqXeXzX9XeXzXlXeXeXeXeXrXrXeXwXzXrXrXwX",
"ZXrX:X^.J # < h X.=.w.v.m.Z.M.b.N.n.B.U.T.W.W.Q.7.S i L ` .X<XlXhXlXwX9XqX9XwXvXCXvXrXwXwXqX9XeXNXeXeXzXeXeXeXeXeXeXeXrXrXrXlXrX",
"ZXuX>X_.( J A l n o.;.8.v.m.B.C.T.T.E.E.R.L.K.c.Y P L ! _.>XvXCXbXvXeXqX9XwXwXlXfXcXcXlXwXqXeXuXeXeXeXeX9XeXzXeXeXeXeXwXeXwXlXzX",
"pXpX4X:X}.~.! S f p c @.0.d.T.W.'.'.'.W.R.6.U P P Q / _.#X4XvXCXvXvXzXeXwXhX8XlXfXlXlXcXtXyXtXuXtXeXwXwXeXeX9XzXzXzXzXwXwXlXcXwX",
"pXpX6XqX,X.X/.I 9 : p M 1.r.U.`.[.[.[.].G.Y x e E _.|.-X4XwXtXpXtXtXrXeXhXlXlXlXhXwXrXrXvXvXvXvXvXwXwX8XjXzXjXeXzXhXzXwXrXrXrXrX",
"pXpXCXCXNX1X|.~ t < , h C 1.x.R.].].].Q.F.Y 7 H ! }.,XiXNXrXpXpXpXuXzXlXlXlXhX3X8X8XeXzXvXCXcXcXcXcXwXwXwXhXzXjXzXeXeXzXrXrXrXeX",
"CXpXCXMXMXjX*X}.{ I A j k z U 2.S.F.S.S.Q I E ~ /.XX8XMXZXCXtXtXtXvXvXwXlXlXlXwX8XwXwXzXzXvXvXvXvXrXlXwXhXeXjXlXwXwXwXwXwXrXwXwX",
"6XrXtXvXMXjX<X=X}.] I 7 : - 4 k x x x A Y / ^._.+X<XzXvXvXtXtXrXtXtXtXzXzXlXlX3XwXwXwXwXvXvXvXrXrXzXlXwXwXlXlXzXwXzXvXwXwXzXrXrX",
"rXrXtXlXxXzXjXkX1X X` J 3 O O @ @ @ @ 5 I ~.oX5X7XhXlXeXwXwXtXwXcXrXrXrXlXzXlXwXwXeXeXwXwXrXrXwXwXwXeXlXwXeXeXlXwXwXwXwXrXlXzXwX",
"6XpXcXtXzXeXzXxXkX-X_.! K q q H H q H K ~ (.:XpXvXzXwXwXwXwXeXeXwXlXrXzXrXrXrXlXzXwXlXwXwXwXwXvXrXlXlXeXrXlXrXlXwXzXtXlXeXeXrXrX",
"rXrXrXrXvXzXxXvXzX1X=X}.)._ _ _ / ( ( _ (.oX4XNXMXvXwXwXrXwXwXwXzXlXrXlXrXwXwXtXlXrXzXwXeXlXrXlXeXeXzXrXzXrXeXeXwXwXwXwXlXeXlXrX",
"rXrXrXrXtXcXrXzXeX8X1X>X:X@X+X.X.X.XOXXX:X4XlXvXvXzXwXwXwXwXwXwXwXeXrXwXeXzXwXlXeXwXwXwXwXeXrXeXzXwXeXrXeXrXrXeXwXzXwXzXrXrXlXeX",
"rXrX6XyXwXwXeXzX8XzXjXzXjXjXjX7X7X4X7X4X4X6XxXzXrXwX6X4XwXwXwXzXwXrXzXwXwXwXlXrXwXrXeXrXlXrXrXrXlXwXlXrXwXrXwXrXzXrXrXeXrXlXrXzX",
"qXyXrX6XwXtXzX9XzXzXMXVXVXVXVXmXxXzXjXzXzXzXvXvXtXrXwXwXwXwXrXzXeXrXrXeXrXzXeXrXwXwXzXrXzXrXwXwXvXtXlXeXzXrXrXzXwXwXrXlXeXwXeXrX"
};
