/* XPM */
static char *_b120c8669ae4891a37db393b41e41be9FlNQuUzly2wA9iO[] = {
/* columns rows colors chars-per-pixel */
"64 64 244 2 ",
"   c #080507",
".  c #14040D",
"X  c #1A030E",
"o  c #170A0B",
"O  c #140412",
"+  c #1B0B13",
"@  c #1B0713",
"#  c #16161A",
"$  c #091210",
"%  c #29040D",
"&  c #35010E",
"*  c #39010E",
"=  c #250C12",
"-  c #2B0716",
";  c #340212",
":  c #3C0113",
">  c #370A1A",
",  c #281315",
"<  c #37121C",
"1  c #1E1C29",
"2  c #251A28",
"3  c #381725",
"4  c #36132A",
"5  c #1B2427",
"6  c #24222D",
"7  c #2B212E",
"8  c #252A2A",
"9  c #252230",
"0  c #2C2737",
"q  c #372936",
"w  c #36343A",
"e  c #2F2D32",
"r  c #49081A",
"t  c #57081E",
"y  c #63071D",
"u  c #490C24",
"i  c #5D0B23",
"p  c #580924",
"a  c #451524",
"s  c #481827",
"d  c #561629",
"f  c #481E32",
"g  c #571A32",
"h  c #640623",
"j  c #6A0623",
"k  c #630B24",
"l  c #690A24",
"z  c #670B2A",
"x  c #780D2A",
"c  c #65132C",
"v  c #77132D",
"b  c #780E32",
"n  c #691B34",
"m  c #791634",
"M  c #54232E",
"N  c #462636",
"B  c #45343C",
"V  c #532531",
"C  c #672437",
"Z  c #74233A",
"A  c #7A243C",
"S  c #383744",
"D  c #342C41",
"F  c #483745",
"G  c #553947",
"H  c #563D52",
"J  c #46344D",
"K  c #7D2942",
"L  c #762945",
"P  c #663949",
"I  c #78354B",
"U  c #753B54",
"Y  c #3A4B45",
"T  c #47474A",
"R  c #4A4655",
"E  c #574956",
"W  c #564F56",
"Q  c #624B56",
"!  c #5B5B6C",
"~  c #575868",
"^  c #5C5D72",
"/  c #565971",
"(  c #524E63",
")  c #615B6D",
"_  c #645666",
"`  c #635D74",
"'  c #6D586B",
"]  c #5B6375",
"[  c #586268",
"{  c #6B6677",
"}  c #766A7B",
"|  c #75777A",
" . c #696A70",
".. c #850F32",
"X. c #920E35",
"o. c #851533",
"O. c #8C1435",
"+. c #8A183A",
"@. c #921335",
"#. c #93123A",
"$. c #96193E",
"%. c #8B0D2B",
"&. c #A81C3F",
"*. c #85213D",
"=. c #99223E",
"-. c #991D43",
";. c #8F1D43",
":. c #A41B45",
">. c #AA1C48",
",. c #AF1E4A",
"<. c #832B45",
"1. c #8A2946",
"2. c #9B2343",
"3. c #952C4B",
"4. c #962547",
"5. c #85334C",
"6. c #95314E",
"7. c #993554",
"8. c #933353",
"9. c #A22344",
"0. c #AC2B4D",
"q. c #A5274B",
"w. c #B42A4D",
"e. c #AA2A52",
"r. c #B42D54",
"t. c #BB2C55",
"y. c #B82B59",
"u. c #A43354",
"i. c #AC3559",
"p. c #A8385A",
"a. c #B43254",
"s. c #B4345A",
"d. c #BB355B",
"f. c #B43A5D",
"g. c #BB3A5C",
"h. c #BA3555",
"j. c #AC314C",
"k. c #AA3D61",
"l. c #BB3663",
"z. c #B63D63",
"x. c #BC3C64",
"c. c #BE3D6A",
"v. c #BE3669",
"b. c #C4345E",
"n. c #C33B5C",
"m. c #C7385B",
"M. c #C92D59",
"N. c #CA3563",
"B. c #C33C64",
"V. c #CA3B65",
"C. c #C33D6A",
"Z. c #CA3C6B",
"A. c #C73666",
"S. c #D4396A",
"D. c #C73D71",
"F. c #BD425F",
"G. c #BC4164",
"H. c #BC4269",
"J. c #B64365",
"K. c #A44663",
"L. c #8E455F",
"P. c #C3415E",
"I. c #C34264",
"U. c #C4426A",
"Y. c #CB426B",
"T. c #C94467",
"R. c #C74673",
"E. c #D64975",
"W. c #DA547B",
"Q. c #CE4F73",
"!. c #E1527B",
"~. c #787587",
"^. c #747188",
"/. c #857D96",
"(. c #817688",
"). c #E55682",
"_. c #F7618E",
"`. c #DD5A82",
"'. c #7B828D",
"]. c #838686",
"[. c #868699",
"{. c #928F98",
"}. c #998DA9",
"|. c #8E96A8",
" X c #9595AB",
".X c #9A93AD",
"XX c #9797AA",
"oX c #9C9BB2",
"OX c #9897B3",
"+X c #8F8CAA",
"@X c #A399B7",
"#X c #A293AB",
"$X c #9DA5B8",
"%X c #98A2AE",
"&X c #A7A4BA",
"*X c #B6BDBD",
"=X c #A9AFB6",
"-X c #AAA8C3",
";X c #B4ABC8",
":X c #ACB2C8",
">X c #B8B4CC",
",X c #BBBCD4",
"<X c #BDBCDA",
"1X c #BAB6D5",
"2X c #B1AFD1",
"3X c #BDBDE3",
"4X c #9E9CC3",
"5X c #C3BCDC",
"6X c #CABCDC",
"7X c #C5B7D8",
"8X c #C4B4CE",
"9X c #C6BEE5",
"0X c #CABDE5",
"qX c #C6BEE9",
"wX c #CBBDEA",
"eX c #CCB6E3",
"rX c #D1BCE6",
"tX c #D2BBEB",
"yX c #D8B7EE",
"uX c #CEBEF1",
"iX c #BCC1DC",
"pX c #B8C3D7",
"aX c #ABC2CA",
"sX c #BEC4E3",
"dX c #BEC3E9",
"fX c #BDD3E1",
"gX c #C3C2DF",
"hX c #C8C1DC",
"jX c #C4C2E5",
"kX c #C9C1E6",
"lX c #C4CAE6",
"zX c #CCCAE5",
"xX c #C5C2E9",
"cX c #CBC2EB",
"vX c #C4C9EB",
"bX c #CBCAEA",
"nX c #D2C3EC",
"mX c #D4CCEC",
"MX c #D3C7E7",
"NX c #CAD2EB",
"BX c #CBCBF1",
"VX c #D5C9F1",
"CX c #D6C7F1",
"ZX c #CED1F4",
/* pixels */
"9X5XjXgXgXkXtXnXwXwXqXqXuXeXqXqXqXxXcXcXuXnXwX0XwXwXwX9X9X9X<XgXsXlXlXsXiX9X5X9X9X9X9XqX0XwXrXrXrX0X7X9X9XkX9X9X9XqX9XwXkX9X9XqX",
"kX9X5XgX9XkXcXnXwXwXqXqXqXuXuXqXxXxXBXuXnXtXrX0XwXwXwX9XkXsXsXjXsXlXxXsX3X<X<X5X9X9XkX9XkXrXwXwXrX0XeX9X9X9XqX9X9XkX9XkX9XkX9XkX",
"9XjX9X9X9XcXwXcXqXqXqX3X3XuXqXqXxXcXcXnXnXtXwXwXqX9XqXcXjXjX<X5XjXlXkXjX3X<X9X9X9XkX9XcXcXkX0X0X0X0X9X9X9X9XkXkX9X9X9XqX9XkX9XcX",
"9X9XkXkXkXcXwXqXxXxXqXxXuXuXuXuXbXbXbXnXnXnXnXwXqXqXxXkXxX3X9X9X9XkXkXkX9X9X9X9X0XkXcX0X9X0X9X9X9X9X0XwX9XxXkXxXqXkXkX9XqX9X9X9X",
"9XcXcXcXcXqXqX9XvXsXsXsXdXjXjXgXsXiXgX6X6X6X0X9XkXxXxXdXxXjX9X9XwX0X0X0X9X9XkXcXcXcXkXcX9X9X3X9X9X9XcXnXcX0XkXkXcX9X9XcX9XqXkX9X",
"9XcXwXcXcXqX9X9XjXsXsXpX2X-X&X&X-X$X&X&X&X-X8X9XlXvXxXxXqXsX9XqXrXtXrXwX9XcXqXlXkXkXkXkX9X9X5XsX9XkXcXcXnXcXwX9X9X9X9X9XkX9X9X9X",
"kXkXqXwXuXqXqXxXvXlXsX:X X~.| } { { { ` } /.&X1XvXvXxXdXdXqXqXwXrXrXrXeXrX0XkXxXkXlXkX9X9X9X9X<X3X9XxXxX0XcX0X0X9X9X9X9X9X9XcX9X",
"9XqXqXwXqXqXqXxXzXNXpX%X| R w 0 w e q 7 F ~ [.;XxXbXvXxXxXqXnXtXrXyXtXeXwX9X9X9XkXjX0XkX5XjXjXgXjXjXjXjXkX9XrX0XqXkXcX9X9XcX9X9X",
"9XqXqXqXwXqXkX6XgXpX:X].W 3 + + o + + + 2 F ^.OX1XiX5X9XuXnXuXuXyXrXeXwXwXqX0X9X9XjX5XjXjXjXjXjXjXsX9X3X9X0X0XrX0X0X0XkX9X9X9XqX",
"9XqXqXqXuXwXMX6X>X%X].) F 3 % > < s s s f G ) ~.|.&X<XkXCXCXtXwXwXwXwXeXeX0XeX9XkX9XkXkXjXjXjXjX9XjX<X3X9X9X0XrXkX0X0X9XqXkX9XkX",
"9XqXqXuXcXnXyX8X.X} R N s r k m 5.L.7.7.8.Q H R / '.-XrXCXCXwXwXqXqXqX9X0XeXeXwX0X9XkXxXxXjXjX9X5X9X9X9X9X9X0XrX9X0X0XqX9XkX9XcX",
"9XqXcXwXqXnXeX;X(.H 6 , u v =.p.Q.`.`.).Q.L.P f S ^ .X8XrXrXqXqXdX3XqXqX0XwXeXwX0X9XlXlXlXxXsXjX5X9X6X9XwX9XcX0XqXkXkX9XqX9X9X9X",
"9X9XnXcX3X1X@X/._ N - ; k O.0.n.!.)._._.).J.I f q E (.#X;X1X3X3XdXdXdXxXxXwXeX6X0XkXkXxXxXsXjXgX9X9X5X9X9XkXcXwX9X9X9XkXkXwXkX9X",
"9XqXbXjX:XOX^._ G f u i m =.a.V.E.!.!.).`.R.k.I P P Q { '.4X3XvXZXdXdXxXkX9X9X9XkX6X9X9XjXjXjXjXkX9X9X9XwX0XkXkXkXcX9XqX9X9XkX9X",
"0XkXbX<X$X^.J D a p b o.2.u.s.I.V.Y.E.E.E.`.R.R.K.I N B ( '.2XdXBXvXcXcXjXxXjXjXkX9X9X9X5X9X9XkXkXkX9X0XwXkXxXjX9XkX9X9XkXqX9XqX",
"9XjXbXpXOX/ D # > p #.:.0.i.f.B.A.B.A.D.D.R.`.).Q.5.f 7 Y ^.$X3X3XxXcXvXxXsXsXlXjX5X6X7X6X9XjXkXlXkX9XcX9XxX9X9X9XxXkXkX9X9X9XkX",
"kXjXzX,XXX[ 6 X : z #.>.y.l.G.F.g.z.c.x.U.R.W.).E.F.*.C T ~ ^.'.&X6XkXMXxXsXsXsXxXkX0XeX6X0X9XeXcXkXxXkXkX9X9X0X9XkX9X0XwX9XkX9X",
"9X9XzX8XXX~ 2 X : j -.>.y.A.I.J.z.z.z.x.c.Y.S.E.Q.Q.J.K.L.G H ~ /.;XhXMXzXiXsXsXsXjX9XwXeXwXrXwXkX9XjXkX9X9X9X6X9X9X9XqXkX9X9XcX",
"qX5XMX8X}.! 7 % r j #.>.y.B.T.U.z.G.z.z.x.U.Z.Y.T.!.!.W.K.C 4 D ' #X8XhX5X,XiXiXsXsXvXwXtXrXrXrX9XeX9X9X5XjXjX5XkX9XqX9X9X9X9X9X",
"kX9XMX8X#X! 7 % : j X.>.r.B.U.Y.G.J.G.J.z.x.B.C.E.!.).!.F.n 3 4 H ^.{.&X;XhXgXzXsXsXxXwXwXtXrXrX0XwXqX9XjXjXjXjXkX9XkX9XwX9X9XcX",
"9XgXmX8X.X) 7 X & i ..-.e.x.I.T.J.H.G.H.x.x.x.I.B.E.E.T.f.m d a f G _ (.@X6XhXkXlXxXjXvXxXwXqXwXrXwXrX0XkXkXsXsXjXxX9X9XkXkX9XqX",
"kXzXmX6X#X[ 9 O % p ..$.j.g.I.T.T.H.U.H.x.x.x.x.x.B.T.P.i.3.m c u 4 q _ }.>X6XMX9XkXjXxXxXxXqXwXrXyXwXrXkXkXjXsX9XkXkXqX9X9XkX9X",
"9XkXmX6XOX] 9 O % p o.$.j.f.P.T.T.U.B.B.C.x.x.c.I.G.x.g.i.j.=.v t ; 3 G L.@X;X5X9XvXvXdXxXqXwXeXrXtXrXwXkXjXsXjXjXxXkX9XcX9X9XqX",
"9X9XmX6XOX^ 9 . % p o.=.j.h.P.P.T.T.T.C.A.B.C.B.H.f.x.g.s.s.j.$.z r 4 f H ^./.@X1XxXNXdXdXqXwXtXrXtXtXrXkXkXsXiXjXjXkX9X9X9X9XkX",
"0X9XmXeX}.` 9 O - p ;.:.j.h.P.m.P.n.m.V.Z.A.C.Z.C.x.H.x.n.n.w.j.;.x k s 4 D / /.2XdXdXdX3XqXwXwXwXwX0X6X9XjXsXsX9XqXkXkXqX9X9XcX",
"0XkXCX7XOX` 9 O > z +.:.j.h.n.h.a.a.h.N.Z.D.Z.C.C.c.H.x.F.F.j.j.4.+.m d 4 4 D ^.OX2XdXdXqXuXwXuXwXeX9X9X5X9X5X9X9XkX9X0X9XkX9X9X",
"9XcXCXeXOX/ 9 O ; k $.q.h.n.h.6.<.*.4.s.N.S.S.V.B.Z.C.x.F.*.*.*.4.=.=.m u 4 f R ^.'.4X1XuXuXuXqXwXqX9X9X9X9X0X6X9X0XqX9X9X9X9X9X",
"9XxXCX7X@X` 9 O ; i #.q.M.n.p.<.d p n 7.Z.S.S.S.A.Z.T.z.6.C t d *.u.u.2.b p u D S ( /.;XtXCXuXqXqXeX9X0X9XeX6X0XqXqXcX9XeX9X9X9X",
"9XcXCXeX#X` 9 O ; h O.>.r.z.7.C 3 > d <.f.S.S.N.N.V.I.p.I s r < Z K.f.i.-.b p > @ D ` .X8XwXeX9X9X9XqX9X9XeX0X0X0XwXwXqX9X<X9X9X",
"9X9XCX6X@X` 9 O : k O.$.4.6.5.C T F Q Q 8.i.t.m.b.s.7.5.P T G B C 5.7.q.e.;.b p - 4 H ^..X;X1XrXqXqXqXqX9X9X0X6XqXwX9X9X9X9X9X9X",
"9XqXCXeX}.` 9 O ; z o.o.c g G ' ].].L.Q C Z 2.a.s.3.C V Q | ].]. .P C Z 1.q.;.b p p N H ) /.@X6XMXcXcXcXxXqX9X9X9XqXqXqXqXkX9X9X",
"cXqXCXeX}.` 9 @ ; c b z r , B | =X*X%XW 7 a Z u.i.A a 3 W {.*X=X| B r d 1.z.a.-.;.b u 4 q ( }.;XnXnXcXxXxX3X3X3X9X9X9XcXcXqXqXqX",
"kXqXCX7XOX^ 6 + r k v y % o 8  .=X*X{.Y # % C 7.j.Z , $ Y '.aX=X .e o < <.J.b.t.,.X.p : 4 B } #X;X6XhXkXxXdX3XdXqX3X9XqXwXnXcXqX",
"9XqXnX1X.X[ 9 O & c v i %   # Y | ].[ 8 $ , C 7.u.C , $ 8 [ '.| Y 5 o < <.z.B.N.w.-.x r < 3 E { [.@X8XkXBXBXdXxXqXqXqXqXqXcXqXcX",
"jXjXBX<X X/ 6 . & i v y &     5 Y w 8 $   , Z p.p.Z <   $ 8 S w 5 $ o a <.f.A.V.m.0.=.v p a 3 q ( /.;XjXbXcXqXqXqXqXqXqXqXqXcXqX",
"9XjXBX<XXX/ 8 . * k v y r %     $ $     o a K p.K.K s o     $   $ $ , M 1.f.n.V.n.h.q.=.m d < - e ) XX>X9XqXqXcXwXqX9XqXqX9XqX9X",
"9XjXmX<XOX[ 6 . * y %.v c d < .       o a Z 3.f.z.6.C a @       O - f L 6.l.B.V.P.m.h.j.=.v r & 3 F } [.&X1XxXBXcXcX9X9XqX9XqXxX",
"kXjXVX6XoX[ 6 . & y %.=.+.K C <     = t +.q.i.G.G.i.6.L s -     4 f L 8.s.l.V.B.V.n.n.h.j.=.v y s N J ( ^.-XxXBXcXcX9X9XkXqX9XqX",
"0X9XVX7X@X! , . r y %.&.0.u.8.M = % a m r.A.A.U.H.x.z.p.L a % , g L p.z.x.x.V.B.n.P.P.P.P.j.=.O.l r - 0 / +X2XlXkXkXkX9XkXwXcX9X",
"0X0XCXeX#X! 7 . * y %.&.h.g.K.Z s a C 4.N.S.V.C.G.U.T.x.3.C u s L u.c.D.Z.A.A.n.P.P.P.P.P.P.w.&...i - 2 S ^.OX4X1X3XkXkXkXkX0X9X",
"kX9XCX7X}./ 2 X * l @.9.t.n.f.7.<.K 5.i.N.S.Z.G.I.U.U.B.i.1.*.<.8.v.R.D.D.D.A.l.l.x.H.F.P.P.h.w.-.b p u q H ~ /.oXiXbXbXnX6X0XkX",
"0X9XcX7X}.` 9 O * k @.9.0.d.f.K.K.p.p.z.C.B.I.z.B.x.x.A.A.i.u.p.z.c.`.H.D.D.A.v.z.c.G.F.F.F.g.h.e.;.b z u 2 0 ( [.;XkXcXkX0X0XxX",
"9XjXxX1X.X! 2 O : l @.9.j.a.g.f.k.k.z.J.J.H.U.I.A.U.C.A.l.f.i.f.J.c.v.D.c.D.A.c.c.z.z.F.F.P.P.g.a.0.-.;.p - 2 D { }.;X3X5XkXkXkX",
"wXkXVX<XOX^ 9 O * k @.&.0.f.i.u.<.1.3.k.G.C.T.T.U.U.C.x.u.5.*.*.7.l.D.D.D.A.D.v.c.c.G.z.G.G.H.I.n.h.,.:...p > f H ^.[.@X>X5XxXjX",
"xXdXBXdXOX] 9 O & y X.&.w.g.u.*.M d C 6.x.V.S.Z.G.T.T.x.6.C s M A u.N.A.S.Z.D.C.c.c.c.D.H.U.x.x.A.b.M.w.>.X.b d N J / ~.&X5XMXkX",
"cXdXZXdX4X/ 9 O & h X.>.w.i.6.Z a ; d A i.b.g.J.F.J.J.p.I s , , n 4.b.N.A.A.D.c.c.c.c.U.U.C.B.x.s.B.N.M.,.>.+.z > @ D ] OX5XbX9X",
"9XxXZXdXOX/ 6 . & y X.:.0.0.3.A d a d C A *.<.5.*.5.5.A C s 3 M Z q.l.N.Z.Z.D.C.D.c.c.U.U.C.x.z.z.S.S.M.t.>.;.j - O 1 ^ XX5XmX9X",
"0XjXdX3XOX/ 1 . & y @.$.:.9.2.1.A Z C M s a s a a s s s V V C L 6.a.A.A.A.C.Z.Z.H.D.C.U.c.c.x.c.B.Z.N.m.t.>.-.j - O 1 ~ |.8XmX0X",
"9XxXbX3XOX/ 0 O > p o.@.O.*.2.0.k.8.L 4 - O o o + o o , s L 5.p.z.f.x.B.B.U.U.I.C.U.c.H.H.c.x.v.x.C.B.d.r.:.o.t & + 6 ! XX8XzXkX",
"0XcXuX3X4X^.S D 4 g v x o.o.-.q.y.e.L g > @ + , , , = < g L p.c.I.x.B.B.B.I.I.P.I.B.x.G.H.H.c.c.x.A.d.a.q.:.o.y & X # [ XX,XzXjX",
"qXwXuXeX2X+X~.~ F a r t l o.;.-.e.e.;.Z C M M V M M M n L u.c.D.R.C.I.I.I.I.P.P.B.x.I.H.H.H.c.c.v.y.r.q.:.$.o.t % . 2 ~ XX,XzXhX",
"qXqXyXyXeX1X$X'._ q = * h o.#.-.;.;.3.3.8.6.6.7.u.6.6.6.k.v.c.v.Z.Z.B.V.n.n.m.P.B.B.I.x.C.C.c.v.v.y.>.:.&.#.b i % o 6 ! XX8XzXkX",
"jXwXyXyXtXkXpX=X~.T 2 < p b b o.;.;.;.e.s.d.d.g.h.h.d.g.x.l.D.v.A.A.b.b.n.n.n.m.h.d.g.b.l.l.l.l.i.>.:.-.X...x d > 2 S ^.#X8XzXhX",
"9XwXyXyXtXCXlX:X|.{ W F V p z z b ;.-.>.y.d.d.h.h.h.a.h.r.y.y.y.y.t.t.r.w.h.j.w.w.j.j.r.r.r.r.r.e.>.-.;.b h t a N H ` /.&XhXzXkX",
"9XwXyXyXuXcXcXiX:X%X[.' G a r p b m ;.-.9.q.>.9.q.9.2.=.2.:.:.>.>.9.9.9.=.9.9.=.=.=.9.9.>.:.:.&.-.-.;.m z r > q ~ ~..X-X1X5XjX0X",
"jX9XwXwXuXxXxXxXlXiX-X/.( 7 - u n n ;.O.#.X.O.@.O.O.o.o.o.O.@.#.#.@.@.O.=.O.O.O.O.o.O.@.X.X.X.X.;.;.m n d > - F ^.@X1X9X9XlXkX0X",
"qXwXtXuXwXqXkXxXbXNX,X%X~.E N q g g z z z j h j y y i i i h h z j j k j l k k k i k k y j j y y z i d V N q T [ }.;XcXmXwXqX9X0X",
"9XwXwXuXuXqXxXjXlXlXgX:X}.| _ G 4 > - : : r : r & & & ; ; ; : ; ; & * ; ; & & & ; ; & : * r * r : ; > 3 w W | {.-X1XcXbXwXcXkXjX",
"9XqXwXuXtXwXkX9XjXjXiXpX>X&X/.' 0 @ . X @ - O X o .   . . . . . . . . O . . . . .   . o X X X X X . O 1 R '.$XaX9XjXkXkX9XqX9XkX",
"9X0XcXtXwXqX9X9X9X5XiXjXhXhX@X~.R 0 1 7 7 7 7 7 6 6 6 6 9 6 9 9 6 6 2 9 6 6 6 8 6 6 6 6 6 6 7 7 9 2 5 S ] %XpXfXlXkXjX9X9XqX9X9X",
"0X0XqX9X9X9X9X5X9X5X5XkXhXhXpX.X^.` ~ ) ! _ ) ) ) ) ) ) ! ^ ! ] ! ! ! ! ! ! ! ! ~ ~ ~ [ ! [ ! ) ^ ~ / ^.[.:XjXbXvXkX9XkXcXqX9XkX",
"kX9X9X9X9XjX9X9X0X0X6XMXzXMXhX>X&X.X XXX X XoXoXOXOX.X.XOXOXOX|.%XoXXXXX.X.XXXXX|.|. X|.XX XOXXX.X.X}.OX-X1X5XkXkXkX9XwXkX9X9X9X",
"9X9X9X3X3X3X9X9X6XkXrXMXMXMXmXhXgX<X<X<X1X1X5XgX6X6XeX<X5XiXiXpXpX<XpXhXhXhX,X>XaX,XpXpXpXpX,XpX<X6X7XeX7XeXeX6X0X9X0X9X9X9X9XqX",
"9X3X3X3X<X9XjX9XgXkXhXhXmXmXmXmXmXbXbXbXbXbXmXVXCXCXCXnXmXNXZXZXNXNXmXmXmXmXzXzXgXlXlXlXNXNXbXbXbXmXmXnXMX0X0X9X0X0X9X9X9X9XcXcX"
};
